%
M48
M72
T01C0.0120
T02C0.0236
T03C0.0315
T04C0.0354
T05C0.0394
T06C0.0400
T07C0.0866
T08C0.0900
T09C0.1260
T10C0.1280
%
T01
X7142Y23407
X11017Y24532
X12204Y25657
X12704Y23282
X14704Y22407
X14642Y21532
X14892Y20094
X16579Y20032
X17829Y19719
X18954Y20719
X20142Y19782
X20142Y18782
X21892Y17907
X22642Y22532
X21829Y23157
X21142Y24094
X22517Y24407
X22892Y23907
X26767Y23157
X29642Y22157
X30767Y23407
X30392Y24032
X31517Y24782
X34892Y23157
X37392Y24782
X38392Y24032
X38642Y23407
X37642Y22032
X38267Y18532
X37767Y17907
X29767Y17907
X11329Y18969
X12267Y19969
X13454Y19032
X10204Y21344
X8392Y19282
X15267Y23094
X15579Y24032
X15267Y24469
X18142Y22407
X18829Y23969
X18642Y26032
X29204Y29782
X31892Y30782
X32704Y30157
X34517Y29844
X38704Y31532
X38579Y34219
X36392Y33969
X36267Y34532
X36204Y35094
X37642Y36594
X36954Y37282
X38079Y39969
X34329Y36532
X33704Y36532
X33204Y36157
X34329Y35282
X34079Y34532
X35517Y33157
X35454Y32407
X33642Y32469
X32204Y33532
X31767Y34844
X30767Y36157
X27892Y38532
X29642Y42907
X16642Y39844
T02
X5392Y26532
X5892Y26532
X6392Y26532
X6892Y26532
X7392Y26532
X7892Y26532
X7892Y29282
X7392Y29282
X6892Y29282
X6392Y29282
X5892Y29282
X5392Y29282
X35892Y26532
X36392Y26532
X36892Y26532
X37392Y26532
X37892Y26532
X38392Y26532
X38392Y29282
X37892Y29282
X37392Y29282
X36892Y29282
X36392Y29282
X35892Y29282
T03
X34136Y22412
X33136Y22412
X32136Y22412
X26144Y22402
X25144Y22402
X24144Y22402
X24144Y15402
X25144Y15402
X26144Y15402
X27138Y13412
X28138Y13412
X32136Y15412
X33136Y15412
X34136Y15412
X35146Y13405
X36146Y13405
T04
X5642Y31907
X5642Y32907
X5642Y33907
X5642Y34907
X5642Y35907
X5642Y36907
X5642Y37907
X5642Y38907
X10642Y38907
X11642Y38907
X11642Y37907
X10642Y37907
X10642Y36907
X11642Y36907
X11642Y35907
X10642Y35907
X10642Y34907
X11642Y34907
X11642Y33907
X10642Y33907
X10642Y32907
X11642Y32907
X11642Y31907
X10642Y31907
X16642Y31907
X16642Y32907
X16642Y33907
X16642Y34907
X16642Y35907
X17642Y35907
X17642Y34907
X17642Y33907
X17642Y32907
X17642Y31907
X17642Y36907
X17642Y37907
X17642Y38907
X16642Y38907
X16642Y37907
X16642Y36907
X22642Y36907
X22642Y37907
X22642Y38907
X23642Y38907
X23642Y37907
X23642Y36907
X23642Y35907
X22642Y35907
X22642Y34907
X23642Y34907
X23642Y33907
X22642Y33907
X22642Y32907
X23642Y32907
X23642Y31907
X22642Y31907
X28642Y31907
X28642Y32907
X28642Y33907
X28642Y34907
X28642Y35907
X28642Y36907
X28642Y37907
X28642Y38907
T05
X6892Y16032
X6892Y17032
X6892Y18032
X6892Y19032
X7892Y18532
X7892Y17532
X7892Y16532
X7892Y15532
X6767Y13468
X8735Y12287
X6767Y11047
X31173Y42714
X33142Y41533
X35642Y41657
X35642Y40657
X35642Y39657
X35642Y38657
X36642Y39157
X36642Y40157
X36642Y41157
X36642Y38157
X33142Y43954
T06
X6392Y23907
X6392Y21907
X13392Y13907
X13892Y14907
X12892Y14907
X14392Y13907
X15392Y13907
X14892Y14907
X15142Y17407
X16142Y17407
X17142Y17407
X18142Y17407
X18392Y14907
X19392Y14907
X20392Y14907
X20892Y13907
X19892Y13907
X18892Y13907
X12092Y21907
X12092Y22907
X12092Y23907
X6642Y30407
X7642Y30407
X8642Y30407
X9642Y30407
X12642Y30407
X13642Y30407
X14642Y30407
X15642Y30407
X18642Y30407
X19642Y30407
X20642Y30407
X21642Y30407
X24642Y30407
X25642Y30407
X26642Y30407
X27642Y30407
X40142Y33407
X40142Y34407
X40142Y35407
X26392Y41407
X25392Y41407
X24392Y41407
X24892Y40407
X25892Y40407
X26892Y40407
X20892Y41407
X19892Y41407
X18892Y41407
X19392Y40407
X20392Y40407
X21392Y40407
X15392Y41407
X14392Y41407
X14892Y40407
X15892Y40407
X13892Y40407
X13392Y41407
X9892Y41407
X8892Y41407
X7892Y41407
X8392Y40407
X9392Y40407
X10392Y40407
X39142Y13407
X38142Y13407
T07
X37146Y11405
X33146Y11405
X29138Y11412
X25138Y11412
T08
X9142Y20307
X9142Y25507
T09
X3142Y10407
X4392Y15032
X4392Y19532
X3142Y25407
X3642Y30907
X3642Y44407
X39142Y42157
X40142Y44407
X39142Y37657
X40142Y30907
X40642Y25407
X40642Y10407
T10
X7142Y43907
X11142Y43907
X12642Y43907
X16642Y43907
X18142Y43907
X22142Y43907
X23642Y43907
X27642Y43907
X21642Y11407
X17642Y11407
X16142Y11407
X12142Y11407
M30
