G75*
G70*
%OFA0B0*%
%FSLAX24Y24*%
%IPPOS*%
%LPD*%
%AMOC8*
5,1,8,0,0,1.08239X$1,22.5*
%
%ADD10C,0.0000*%
%ADD11C,0.1300*%
%ADD12C,0.0276*%
%ADD13C,0.0089*%
%ADD14R,0.0512X0.0355*%
%ADD15R,0.0631X0.0394*%
%ADD16R,0.0355X0.0512*%
%ADD17C,0.0640*%
%ADD18C,0.0594*%
%ADD19R,0.0670X0.1418*%
%ADD20C,0.0780*%
%ADD21C,0.1320*%
%ADD22R,0.0473X0.0434*%
%ADD23C,0.0640*%
%ADD24R,0.0749X0.0670*%
%ADD25R,0.0780X0.0780*%
%ADD26R,0.0640X0.0340*%
%ADD27C,0.1024*%
%ADD28R,0.0288X0.0367*%
%ADD29R,0.0985X0.0985*%
%ADD30C,0.0555*%
%ADD31C,0.1306*%
%ADD32C,0.0555*%
%ADD33R,0.0910X0.0280*%
%ADD34R,0.0257X0.0512*%
%ADD35R,0.0355X0.0394*%
%ADD36C,0.1340*%
%ADD37R,0.1064X0.0670*%
%ADD38R,0.1064X0.0512*%
D10*
X002142Y009407D02*
X002142Y026407D01*
X005142Y026407D01*
X005142Y029407D01*
X002142Y029407D01*
X002142Y045907D01*
X041642Y045907D01*
X041642Y029407D01*
X038642Y029407D01*
X038642Y026407D01*
X041642Y026407D01*
X041642Y009407D01*
X002142Y009407D01*
X002512Y010407D02*
X002514Y010457D01*
X002520Y010507D01*
X002530Y010556D01*
X002544Y010604D01*
X002561Y010651D01*
X002582Y010696D01*
X002607Y010740D01*
X002635Y010781D01*
X002667Y010820D01*
X002701Y010857D01*
X002738Y010891D01*
X002778Y010921D01*
X002820Y010948D01*
X002864Y010972D01*
X002910Y010993D01*
X002957Y011009D01*
X003005Y011022D01*
X003055Y011031D01*
X003104Y011036D01*
X003155Y011037D01*
X003205Y011034D01*
X003254Y011027D01*
X003303Y011016D01*
X003351Y011001D01*
X003397Y010983D01*
X003442Y010961D01*
X003485Y010935D01*
X003526Y010906D01*
X003565Y010874D01*
X003601Y010839D01*
X003633Y010801D01*
X003663Y010761D01*
X003690Y010718D01*
X003713Y010674D01*
X003732Y010628D01*
X003748Y010580D01*
X003760Y010531D01*
X003768Y010482D01*
X003772Y010432D01*
X003772Y010382D01*
X003768Y010332D01*
X003760Y010283D01*
X003748Y010234D01*
X003732Y010186D01*
X003713Y010140D01*
X003690Y010096D01*
X003663Y010053D01*
X003633Y010013D01*
X003601Y009975D01*
X003565Y009940D01*
X003526Y009908D01*
X003485Y009879D01*
X003442Y009853D01*
X003397Y009831D01*
X003351Y009813D01*
X003303Y009798D01*
X003254Y009787D01*
X003205Y009780D01*
X003155Y009777D01*
X003104Y009778D01*
X003055Y009783D01*
X003005Y009792D01*
X002957Y009805D01*
X002910Y009821D01*
X002864Y009842D01*
X002820Y009866D01*
X002778Y009893D01*
X002738Y009923D01*
X002701Y009957D01*
X002667Y009994D01*
X002635Y010033D01*
X002607Y010074D01*
X002582Y010118D01*
X002561Y010163D01*
X002544Y010210D01*
X002530Y010258D01*
X002520Y010307D01*
X002514Y010357D01*
X002512Y010407D01*
X003762Y015032D02*
X003764Y015082D01*
X003770Y015132D01*
X003780Y015181D01*
X003794Y015229D01*
X003811Y015276D01*
X003832Y015321D01*
X003857Y015365D01*
X003885Y015406D01*
X003917Y015445D01*
X003951Y015482D01*
X003988Y015516D01*
X004028Y015546D01*
X004070Y015573D01*
X004114Y015597D01*
X004160Y015618D01*
X004207Y015634D01*
X004255Y015647D01*
X004305Y015656D01*
X004354Y015661D01*
X004405Y015662D01*
X004455Y015659D01*
X004504Y015652D01*
X004553Y015641D01*
X004601Y015626D01*
X004647Y015608D01*
X004692Y015586D01*
X004735Y015560D01*
X004776Y015531D01*
X004815Y015499D01*
X004851Y015464D01*
X004883Y015426D01*
X004913Y015386D01*
X004940Y015343D01*
X004963Y015299D01*
X004982Y015253D01*
X004998Y015205D01*
X005010Y015156D01*
X005018Y015107D01*
X005022Y015057D01*
X005022Y015007D01*
X005018Y014957D01*
X005010Y014908D01*
X004998Y014859D01*
X004982Y014811D01*
X004963Y014765D01*
X004940Y014721D01*
X004913Y014678D01*
X004883Y014638D01*
X004851Y014600D01*
X004815Y014565D01*
X004776Y014533D01*
X004735Y014504D01*
X004692Y014478D01*
X004647Y014456D01*
X004601Y014438D01*
X004553Y014423D01*
X004504Y014412D01*
X004455Y014405D01*
X004405Y014402D01*
X004354Y014403D01*
X004305Y014408D01*
X004255Y014417D01*
X004207Y014430D01*
X004160Y014446D01*
X004114Y014467D01*
X004070Y014491D01*
X004028Y014518D01*
X003988Y014548D01*
X003951Y014582D01*
X003917Y014619D01*
X003885Y014658D01*
X003857Y014699D01*
X003832Y014743D01*
X003811Y014788D01*
X003794Y014835D01*
X003780Y014883D01*
X003770Y014932D01*
X003764Y014982D01*
X003762Y015032D01*
X003762Y019532D02*
X003764Y019582D01*
X003770Y019632D01*
X003780Y019681D01*
X003794Y019729D01*
X003811Y019776D01*
X003832Y019821D01*
X003857Y019865D01*
X003885Y019906D01*
X003917Y019945D01*
X003951Y019982D01*
X003988Y020016D01*
X004028Y020046D01*
X004070Y020073D01*
X004114Y020097D01*
X004160Y020118D01*
X004207Y020134D01*
X004255Y020147D01*
X004305Y020156D01*
X004354Y020161D01*
X004405Y020162D01*
X004455Y020159D01*
X004504Y020152D01*
X004553Y020141D01*
X004601Y020126D01*
X004647Y020108D01*
X004692Y020086D01*
X004735Y020060D01*
X004776Y020031D01*
X004815Y019999D01*
X004851Y019964D01*
X004883Y019926D01*
X004913Y019886D01*
X004940Y019843D01*
X004963Y019799D01*
X004982Y019753D01*
X004998Y019705D01*
X005010Y019656D01*
X005018Y019607D01*
X005022Y019557D01*
X005022Y019507D01*
X005018Y019457D01*
X005010Y019408D01*
X004998Y019359D01*
X004982Y019311D01*
X004963Y019265D01*
X004940Y019221D01*
X004913Y019178D01*
X004883Y019138D01*
X004851Y019100D01*
X004815Y019065D01*
X004776Y019033D01*
X004735Y019004D01*
X004692Y018978D01*
X004647Y018956D01*
X004601Y018938D01*
X004553Y018923D01*
X004504Y018912D01*
X004455Y018905D01*
X004405Y018902D01*
X004354Y018903D01*
X004305Y018908D01*
X004255Y018917D01*
X004207Y018930D01*
X004160Y018946D01*
X004114Y018967D01*
X004070Y018991D01*
X004028Y019018D01*
X003988Y019048D01*
X003951Y019082D01*
X003917Y019119D01*
X003885Y019158D01*
X003857Y019199D01*
X003832Y019243D01*
X003811Y019288D01*
X003794Y019335D01*
X003780Y019383D01*
X003770Y019432D01*
X003764Y019482D01*
X003762Y019532D01*
X002512Y025407D02*
X002514Y025457D01*
X002520Y025507D01*
X002530Y025556D01*
X002544Y025604D01*
X002561Y025651D01*
X002582Y025696D01*
X002607Y025740D01*
X002635Y025781D01*
X002667Y025820D01*
X002701Y025857D01*
X002738Y025891D01*
X002778Y025921D01*
X002820Y025948D01*
X002864Y025972D01*
X002910Y025993D01*
X002957Y026009D01*
X003005Y026022D01*
X003055Y026031D01*
X003104Y026036D01*
X003155Y026037D01*
X003205Y026034D01*
X003254Y026027D01*
X003303Y026016D01*
X003351Y026001D01*
X003397Y025983D01*
X003442Y025961D01*
X003485Y025935D01*
X003526Y025906D01*
X003565Y025874D01*
X003601Y025839D01*
X003633Y025801D01*
X003663Y025761D01*
X003690Y025718D01*
X003713Y025674D01*
X003732Y025628D01*
X003748Y025580D01*
X003760Y025531D01*
X003768Y025482D01*
X003772Y025432D01*
X003772Y025382D01*
X003768Y025332D01*
X003760Y025283D01*
X003748Y025234D01*
X003732Y025186D01*
X003713Y025140D01*
X003690Y025096D01*
X003663Y025053D01*
X003633Y025013D01*
X003601Y024975D01*
X003565Y024940D01*
X003526Y024908D01*
X003485Y024879D01*
X003442Y024853D01*
X003397Y024831D01*
X003351Y024813D01*
X003303Y024798D01*
X003254Y024787D01*
X003205Y024780D01*
X003155Y024777D01*
X003104Y024778D01*
X003055Y024783D01*
X003005Y024792D01*
X002957Y024805D01*
X002910Y024821D01*
X002864Y024842D01*
X002820Y024866D01*
X002778Y024893D01*
X002738Y024923D01*
X002701Y024957D01*
X002667Y024994D01*
X002635Y025033D01*
X002607Y025074D01*
X002582Y025118D01*
X002561Y025163D01*
X002544Y025210D01*
X002530Y025258D01*
X002520Y025307D01*
X002514Y025357D01*
X002512Y025407D01*
X005274Y026532D02*
X005276Y026553D01*
X005282Y026573D01*
X005291Y026593D01*
X005303Y026610D01*
X005318Y026624D01*
X005336Y026636D01*
X005356Y026644D01*
X005376Y026649D01*
X005397Y026650D01*
X005418Y026647D01*
X005438Y026641D01*
X005457Y026630D01*
X005474Y026617D01*
X005487Y026601D01*
X005498Y026583D01*
X005506Y026563D01*
X005510Y026543D01*
X005510Y026521D01*
X005506Y026501D01*
X005498Y026481D01*
X005487Y026463D01*
X005474Y026447D01*
X005457Y026434D01*
X005438Y026423D01*
X005418Y026417D01*
X005397Y026414D01*
X005376Y026415D01*
X005356Y026420D01*
X005336Y026428D01*
X005318Y026440D01*
X005303Y026454D01*
X005291Y026471D01*
X005282Y026491D01*
X005276Y026511D01*
X005274Y026532D01*
X005774Y026532D02*
X005776Y026553D01*
X005782Y026573D01*
X005791Y026593D01*
X005803Y026610D01*
X005818Y026624D01*
X005836Y026636D01*
X005856Y026644D01*
X005876Y026649D01*
X005897Y026650D01*
X005918Y026647D01*
X005938Y026641D01*
X005957Y026630D01*
X005974Y026617D01*
X005987Y026601D01*
X005998Y026583D01*
X006006Y026563D01*
X006010Y026543D01*
X006010Y026521D01*
X006006Y026501D01*
X005998Y026481D01*
X005987Y026463D01*
X005974Y026447D01*
X005957Y026434D01*
X005938Y026423D01*
X005918Y026417D01*
X005897Y026414D01*
X005876Y026415D01*
X005856Y026420D01*
X005836Y026428D01*
X005818Y026440D01*
X005803Y026454D01*
X005791Y026471D01*
X005782Y026491D01*
X005776Y026511D01*
X005774Y026532D01*
X006274Y026532D02*
X006276Y026553D01*
X006282Y026573D01*
X006291Y026593D01*
X006303Y026610D01*
X006318Y026624D01*
X006336Y026636D01*
X006356Y026644D01*
X006376Y026649D01*
X006397Y026650D01*
X006418Y026647D01*
X006438Y026641D01*
X006457Y026630D01*
X006474Y026617D01*
X006487Y026601D01*
X006498Y026583D01*
X006506Y026563D01*
X006510Y026543D01*
X006510Y026521D01*
X006506Y026501D01*
X006498Y026481D01*
X006487Y026463D01*
X006474Y026447D01*
X006457Y026434D01*
X006438Y026423D01*
X006418Y026417D01*
X006397Y026414D01*
X006376Y026415D01*
X006356Y026420D01*
X006336Y026428D01*
X006318Y026440D01*
X006303Y026454D01*
X006291Y026471D01*
X006282Y026491D01*
X006276Y026511D01*
X006274Y026532D01*
X006774Y026532D02*
X006776Y026553D01*
X006782Y026573D01*
X006791Y026593D01*
X006803Y026610D01*
X006818Y026624D01*
X006836Y026636D01*
X006856Y026644D01*
X006876Y026649D01*
X006897Y026650D01*
X006918Y026647D01*
X006938Y026641D01*
X006957Y026630D01*
X006974Y026617D01*
X006987Y026601D01*
X006998Y026583D01*
X007006Y026563D01*
X007010Y026543D01*
X007010Y026521D01*
X007006Y026501D01*
X006998Y026481D01*
X006987Y026463D01*
X006974Y026447D01*
X006957Y026434D01*
X006938Y026423D01*
X006918Y026417D01*
X006897Y026414D01*
X006876Y026415D01*
X006856Y026420D01*
X006836Y026428D01*
X006818Y026440D01*
X006803Y026454D01*
X006791Y026471D01*
X006782Y026491D01*
X006776Y026511D01*
X006774Y026532D01*
X007274Y026532D02*
X007276Y026553D01*
X007282Y026573D01*
X007291Y026593D01*
X007303Y026610D01*
X007318Y026624D01*
X007336Y026636D01*
X007356Y026644D01*
X007376Y026649D01*
X007397Y026650D01*
X007418Y026647D01*
X007438Y026641D01*
X007457Y026630D01*
X007474Y026617D01*
X007487Y026601D01*
X007498Y026583D01*
X007506Y026563D01*
X007510Y026543D01*
X007510Y026521D01*
X007506Y026501D01*
X007498Y026481D01*
X007487Y026463D01*
X007474Y026447D01*
X007457Y026434D01*
X007438Y026423D01*
X007418Y026417D01*
X007397Y026414D01*
X007376Y026415D01*
X007356Y026420D01*
X007336Y026428D01*
X007318Y026440D01*
X007303Y026454D01*
X007291Y026471D01*
X007282Y026491D01*
X007276Y026511D01*
X007274Y026532D01*
X007774Y026532D02*
X007776Y026553D01*
X007782Y026573D01*
X007791Y026593D01*
X007803Y026610D01*
X007818Y026624D01*
X007836Y026636D01*
X007856Y026644D01*
X007876Y026649D01*
X007897Y026650D01*
X007918Y026647D01*
X007938Y026641D01*
X007957Y026630D01*
X007974Y026617D01*
X007987Y026601D01*
X007998Y026583D01*
X008006Y026563D01*
X008010Y026543D01*
X008010Y026521D01*
X008006Y026501D01*
X007998Y026481D01*
X007987Y026463D01*
X007974Y026447D01*
X007957Y026434D01*
X007938Y026423D01*
X007918Y026417D01*
X007897Y026414D01*
X007876Y026415D01*
X007856Y026420D01*
X007836Y026428D01*
X007818Y026440D01*
X007803Y026454D01*
X007791Y026471D01*
X007782Y026491D01*
X007776Y026511D01*
X007774Y026532D01*
X008142Y026407D02*
X008142Y029407D01*
X035642Y029407D01*
X035642Y026407D01*
X008142Y026407D01*
X007774Y029282D02*
X007776Y029303D01*
X007782Y029323D01*
X007791Y029343D01*
X007803Y029360D01*
X007818Y029374D01*
X007836Y029386D01*
X007856Y029394D01*
X007876Y029399D01*
X007897Y029400D01*
X007918Y029397D01*
X007938Y029391D01*
X007957Y029380D01*
X007974Y029367D01*
X007987Y029351D01*
X007998Y029333D01*
X008006Y029313D01*
X008010Y029293D01*
X008010Y029271D01*
X008006Y029251D01*
X007998Y029231D01*
X007987Y029213D01*
X007974Y029197D01*
X007957Y029184D01*
X007938Y029173D01*
X007918Y029167D01*
X007897Y029164D01*
X007876Y029165D01*
X007856Y029170D01*
X007836Y029178D01*
X007818Y029190D01*
X007803Y029204D01*
X007791Y029221D01*
X007782Y029241D01*
X007776Y029261D01*
X007774Y029282D01*
X007274Y029282D02*
X007276Y029303D01*
X007282Y029323D01*
X007291Y029343D01*
X007303Y029360D01*
X007318Y029374D01*
X007336Y029386D01*
X007356Y029394D01*
X007376Y029399D01*
X007397Y029400D01*
X007418Y029397D01*
X007438Y029391D01*
X007457Y029380D01*
X007474Y029367D01*
X007487Y029351D01*
X007498Y029333D01*
X007506Y029313D01*
X007510Y029293D01*
X007510Y029271D01*
X007506Y029251D01*
X007498Y029231D01*
X007487Y029213D01*
X007474Y029197D01*
X007457Y029184D01*
X007438Y029173D01*
X007418Y029167D01*
X007397Y029164D01*
X007376Y029165D01*
X007356Y029170D01*
X007336Y029178D01*
X007318Y029190D01*
X007303Y029204D01*
X007291Y029221D01*
X007282Y029241D01*
X007276Y029261D01*
X007274Y029282D01*
X006774Y029282D02*
X006776Y029303D01*
X006782Y029323D01*
X006791Y029343D01*
X006803Y029360D01*
X006818Y029374D01*
X006836Y029386D01*
X006856Y029394D01*
X006876Y029399D01*
X006897Y029400D01*
X006918Y029397D01*
X006938Y029391D01*
X006957Y029380D01*
X006974Y029367D01*
X006987Y029351D01*
X006998Y029333D01*
X007006Y029313D01*
X007010Y029293D01*
X007010Y029271D01*
X007006Y029251D01*
X006998Y029231D01*
X006987Y029213D01*
X006974Y029197D01*
X006957Y029184D01*
X006938Y029173D01*
X006918Y029167D01*
X006897Y029164D01*
X006876Y029165D01*
X006856Y029170D01*
X006836Y029178D01*
X006818Y029190D01*
X006803Y029204D01*
X006791Y029221D01*
X006782Y029241D01*
X006776Y029261D01*
X006774Y029282D01*
X006274Y029282D02*
X006276Y029303D01*
X006282Y029323D01*
X006291Y029343D01*
X006303Y029360D01*
X006318Y029374D01*
X006336Y029386D01*
X006356Y029394D01*
X006376Y029399D01*
X006397Y029400D01*
X006418Y029397D01*
X006438Y029391D01*
X006457Y029380D01*
X006474Y029367D01*
X006487Y029351D01*
X006498Y029333D01*
X006506Y029313D01*
X006510Y029293D01*
X006510Y029271D01*
X006506Y029251D01*
X006498Y029231D01*
X006487Y029213D01*
X006474Y029197D01*
X006457Y029184D01*
X006438Y029173D01*
X006418Y029167D01*
X006397Y029164D01*
X006376Y029165D01*
X006356Y029170D01*
X006336Y029178D01*
X006318Y029190D01*
X006303Y029204D01*
X006291Y029221D01*
X006282Y029241D01*
X006276Y029261D01*
X006274Y029282D01*
X005774Y029282D02*
X005776Y029303D01*
X005782Y029323D01*
X005791Y029343D01*
X005803Y029360D01*
X005818Y029374D01*
X005836Y029386D01*
X005856Y029394D01*
X005876Y029399D01*
X005897Y029400D01*
X005918Y029397D01*
X005938Y029391D01*
X005957Y029380D01*
X005974Y029367D01*
X005987Y029351D01*
X005998Y029333D01*
X006006Y029313D01*
X006010Y029293D01*
X006010Y029271D01*
X006006Y029251D01*
X005998Y029231D01*
X005987Y029213D01*
X005974Y029197D01*
X005957Y029184D01*
X005938Y029173D01*
X005918Y029167D01*
X005897Y029164D01*
X005876Y029165D01*
X005856Y029170D01*
X005836Y029178D01*
X005818Y029190D01*
X005803Y029204D01*
X005791Y029221D01*
X005782Y029241D01*
X005776Y029261D01*
X005774Y029282D01*
X005274Y029282D02*
X005276Y029303D01*
X005282Y029323D01*
X005291Y029343D01*
X005303Y029360D01*
X005318Y029374D01*
X005336Y029386D01*
X005356Y029394D01*
X005376Y029399D01*
X005397Y029400D01*
X005418Y029397D01*
X005438Y029391D01*
X005457Y029380D01*
X005474Y029367D01*
X005487Y029351D01*
X005498Y029333D01*
X005506Y029313D01*
X005510Y029293D01*
X005510Y029271D01*
X005506Y029251D01*
X005498Y029231D01*
X005487Y029213D01*
X005474Y029197D01*
X005457Y029184D01*
X005438Y029173D01*
X005418Y029167D01*
X005397Y029164D01*
X005376Y029165D01*
X005356Y029170D01*
X005336Y029178D01*
X005318Y029190D01*
X005303Y029204D01*
X005291Y029221D01*
X005282Y029241D01*
X005276Y029261D01*
X005274Y029282D01*
X003012Y030907D02*
X003014Y030957D01*
X003020Y031007D01*
X003030Y031056D01*
X003044Y031104D01*
X003061Y031151D01*
X003082Y031196D01*
X003107Y031240D01*
X003135Y031281D01*
X003167Y031320D01*
X003201Y031357D01*
X003238Y031391D01*
X003278Y031421D01*
X003320Y031448D01*
X003364Y031472D01*
X003410Y031493D01*
X003457Y031509D01*
X003505Y031522D01*
X003555Y031531D01*
X003604Y031536D01*
X003655Y031537D01*
X003705Y031534D01*
X003754Y031527D01*
X003803Y031516D01*
X003851Y031501D01*
X003897Y031483D01*
X003942Y031461D01*
X003985Y031435D01*
X004026Y031406D01*
X004065Y031374D01*
X004101Y031339D01*
X004133Y031301D01*
X004163Y031261D01*
X004190Y031218D01*
X004213Y031174D01*
X004232Y031128D01*
X004248Y031080D01*
X004260Y031031D01*
X004268Y030982D01*
X004272Y030932D01*
X004272Y030882D01*
X004268Y030832D01*
X004260Y030783D01*
X004248Y030734D01*
X004232Y030686D01*
X004213Y030640D01*
X004190Y030596D01*
X004163Y030553D01*
X004133Y030513D01*
X004101Y030475D01*
X004065Y030440D01*
X004026Y030408D01*
X003985Y030379D01*
X003942Y030353D01*
X003897Y030331D01*
X003851Y030313D01*
X003803Y030298D01*
X003754Y030287D01*
X003705Y030280D01*
X003655Y030277D01*
X003604Y030278D01*
X003555Y030283D01*
X003505Y030292D01*
X003457Y030305D01*
X003410Y030321D01*
X003364Y030342D01*
X003320Y030366D01*
X003278Y030393D01*
X003238Y030423D01*
X003201Y030457D01*
X003167Y030494D01*
X003135Y030533D01*
X003107Y030574D01*
X003082Y030618D01*
X003061Y030663D01*
X003044Y030710D01*
X003030Y030758D01*
X003020Y030807D01*
X003014Y030857D01*
X003012Y030907D01*
X006502Y043907D02*
X006504Y043957D01*
X006510Y044007D01*
X006520Y044056D01*
X006533Y044105D01*
X006551Y044152D01*
X006572Y044198D01*
X006596Y044241D01*
X006624Y044283D01*
X006655Y044323D01*
X006689Y044360D01*
X006726Y044394D01*
X006766Y044425D01*
X006808Y044453D01*
X006851Y044477D01*
X006897Y044498D01*
X006944Y044516D01*
X006993Y044529D01*
X007042Y044539D01*
X007092Y044545D01*
X007142Y044547D01*
X007192Y044545D01*
X007242Y044539D01*
X007291Y044529D01*
X007340Y044516D01*
X007387Y044498D01*
X007433Y044477D01*
X007476Y044453D01*
X007518Y044425D01*
X007558Y044394D01*
X007595Y044360D01*
X007629Y044323D01*
X007660Y044283D01*
X007688Y044241D01*
X007712Y044198D01*
X007733Y044152D01*
X007751Y044105D01*
X007764Y044056D01*
X007774Y044007D01*
X007780Y043957D01*
X007782Y043907D01*
X007780Y043857D01*
X007774Y043807D01*
X007764Y043758D01*
X007751Y043709D01*
X007733Y043662D01*
X007712Y043616D01*
X007688Y043573D01*
X007660Y043531D01*
X007629Y043491D01*
X007595Y043454D01*
X007558Y043420D01*
X007518Y043389D01*
X007476Y043361D01*
X007433Y043337D01*
X007387Y043316D01*
X007340Y043298D01*
X007291Y043285D01*
X007242Y043275D01*
X007192Y043269D01*
X007142Y043267D01*
X007092Y043269D01*
X007042Y043275D01*
X006993Y043285D01*
X006944Y043298D01*
X006897Y043316D01*
X006851Y043337D01*
X006808Y043361D01*
X006766Y043389D01*
X006726Y043420D01*
X006689Y043454D01*
X006655Y043491D01*
X006624Y043531D01*
X006596Y043573D01*
X006572Y043616D01*
X006551Y043662D01*
X006533Y043709D01*
X006520Y043758D01*
X006510Y043807D01*
X006504Y043857D01*
X006502Y043907D01*
X003012Y044407D02*
X003014Y044457D01*
X003020Y044507D01*
X003030Y044556D01*
X003044Y044604D01*
X003061Y044651D01*
X003082Y044696D01*
X003107Y044740D01*
X003135Y044781D01*
X003167Y044820D01*
X003201Y044857D01*
X003238Y044891D01*
X003278Y044921D01*
X003320Y044948D01*
X003364Y044972D01*
X003410Y044993D01*
X003457Y045009D01*
X003505Y045022D01*
X003555Y045031D01*
X003604Y045036D01*
X003655Y045037D01*
X003705Y045034D01*
X003754Y045027D01*
X003803Y045016D01*
X003851Y045001D01*
X003897Y044983D01*
X003942Y044961D01*
X003985Y044935D01*
X004026Y044906D01*
X004065Y044874D01*
X004101Y044839D01*
X004133Y044801D01*
X004163Y044761D01*
X004190Y044718D01*
X004213Y044674D01*
X004232Y044628D01*
X004248Y044580D01*
X004260Y044531D01*
X004268Y044482D01*
X004272Y044432D01*
X004272Y044382D01*
X004268Y044332D01*
X004260Y044283D01*
X004248Y044234D01*
X004232Y044186D01*
X004213Y044140D01*
X004190Y044096D01*
X004163Y044053D01*
X004133Y044013D01*
X004101Y043975D01*
X004065Y043940D01*
X004026Y043908D01*
X003985Y043879D01*
X003942Y043853D01*
X003897Y043831D01*
X003851Y043813D01*
X003803Y043798D01*
X003754Y043787D01*
X003705Y043780D01*
X003655Y043777D01*
X003604Y043778D01*
X003555Y043783D01*
X003505Y043792D01*
X003457Y043805D01*
X003410Y043821D01*
X003364Y043842D01*
X003320Y043866D01*
X003278Y043893D01*
X003238Y043923D01*
X003201Y043957D01*
X003167Y043994D01*
X003135Y044033D01*
X003107Y044074D01*
X003082Y044118D01*
X003061Y044163D01*
X003044Y044210D01*
X003030Y044258D01*
X003020Y044307D01*
X003014Y044357D01*
X003012Y044407D01*
X010502Y043907D02*
X010504Y043957D01*
X010510Y044007D01*
X010520Y044056D01*
X010533Y044105D01*
X010551Y044152D01*
X010572Y044198D01*
X010596Y044241D01*
X010624Y044283D01*
X010655Y044323D01*
X010689Y044360D01*
X010726Y044394D01*
X010766Y044425D01*
X010808Y044453D01*
X010851Y044477D01*
X010897Y044498D01*
X010944Y044516D01*
X010993Y044529D01*
X011042Y044539D01*
X011092Y044545D01*
X011142Y044547D01*
X011192Y044545D01*
X011242Y044539D01*
X011291Y044529D01*
X011340Y044516D01*
X011387Y044498D01*
X011433Y044477D01*
X011476Y044453D01*
X011518Y044425D01*
X011558Y044394D01*
X011595Y044360D01*
X011629Y044323D01*
X011660Y044283D01*
X011688Y044241D01*
X011712Y044198D01*
X011733Y044152D01*
X011751Y044105D01*
X011764Y044056D01*
X011774Y044007D01*
X011780Y043957D01*
X011782Y043907D01*
X011780Y043857D01*
X011774Y043807D01*
X011764Y043758D01*
X011751Y043709D01*
X011733Y043662D01*
X011712Y043616D01*
X011688Y043573D01*
X011660Y043531D01*
X011629Y043491D01*
X011595Y043454D01*
X011558Y043420D01*
X011518Y043389D01*
X011476Y043361D01*
X011433Y043337D01*
X011387Y043316D01*
X011340Y043298D01*
X011291Y043285D01*
X011242Y043275D01*
X011192Y043269D01*
X011142Y043267D01*
X011092Y043269D01*
X011042Y043275D01*
X010993Y043285D01*
X010944Y043298D01*
X010897Y043316D01*
X010851Y043337D01*
X010808Y043361D01*
X010766Y043389D01*
X010726Y043420D01*
X010689Y043454D01*
X010655Y043491D01*
X010624Y043531D01*
X010596Y043573D01*
X010572Y043616D01*
X010551Y043662D01*
X010533Y043709D01*
X010520Y043758D01*
X010510Y043807D01*
X010504Y043857D01*
X010502Y043907D01*
X012002Y043907D02*
X012004Y043957D01*
X012010Y044007D01*
X012020Y044056D01*
X012033Y044105D01*
X012051Y044152D01*
X012072Y044198D01*
X012096Y044241D01*
X012124Y044283D01*
X012155Y044323D01*
X012189Y044360D01*
X012226Y044394D01*
X012266Y044425D01*
X012308Y044453D01*
X012351Y044477D01*
X012397Y044498D01*
X012444Y044516D01*
X012493Y044529D01*
X012542Y044539D01*
X012592Y044545D01*
X012642Y044547D01*
X012692Y044545D01*
X012742Y044539D01*
X012791Y044529D01*
X012840Y044516D01*
X012887Y044498D01*
X012933Y044477D01*
X012976Y044453D01*
X013018Y044425D01*
X013058Y044394D01*
X013095Y044360D01*
X013129Y044323D01*
X013160Y044283D01*
X013188Y044241D01*
X013212Y044198D01*
X013233Y044152D01*
X013251Y044105D01*
X013264Y044056D01*
X013274Y044007D01*
X013280Y043957D01*
X013282Y043907D01*
X013280Y043857D01*
X013274Y043807D01*
X013264Y043758D01*
X013251Y043709D01*
X013233Y043662D01*
X013212Y043616D01*
X013188Y043573D01*
X013160Y043531D01*
X013129Y043491D01*
X013095Y043454D01*
X013058Y043420D01*
X013018Y043389D01*
X012976Y043361D01*
X012933Y043337D01*
X012887Y043316D01*
X012840Y043298D01*
X012791Y043285D01*
X012742Y043275D01*
X012692Y043269D01*
X012642Y043267D01*
X012592Y043269D01*
X012542Y043275D01*
X012493Y043285D01*
X012444Y043298D01*
X012397Y043316D01*
X012351Y043337D01*
X012308Y043361D01*
X012266Y043389D01*
X012226Y043420D01*
X012189Y043454D01*
X012155Y043491D01*
X012124Y043531D01*
X012096Y043573D01*
X012072Y043616D01*
X012051Y043662D01*
X012033Y043709D01*
X012020Y043758D01*
X012010Y043807D01*
X012004Y043857D01*
X012002Y043907D01*
X016002Y043907D02*
X016004Y043957D01*
X016010Y044007D01*
X016020Y044056D01*
X016033Y044105D01*
X016051Y044152D01*
X016072Y044198D01*
X016096Y044241D01*
X016124Y044283D01*
X016155Y044323D01*
X016189Y044360D01*
X016226Y044394D01*
X016266Y044425D01*
X016308Y044453D01*
X016351Y044477D01*
X016397Y044498D01*
X016444Y044516D01*
X016493Y044529D01*
X016542Y044539D01*
X016592Y044545D01*
X016642Y044547D01*
X016692Y044545D01*
X016742Y044539D01*
X016791Y044529D01*
X016840Y044516D01*
X016887Y044498D01*
X016933Y044477D01*
X016976Y044453D01*
X017018Y044425D01*
X017058Y044394D01*
X017095Y044360D01*
X017129Y044323D01*
X017160Y044283D01*
X017188Y044241D01*
X017212Y044198D01*
X017233Y044152D01*
X017251Y044105D01*
X017264Y044056D01*
X017274Y044007D01*
X017280Y043957D01*
X017282Y043907D01*
X017280Y043857D01*
X017274Y043807D01*
X017264Y043758D01*
X017251Y043709D01*
X017233Y043662D01*
X017212Y043616D01*
X017188Y043573D01*
X017160Y043531D01*
X017129Y043491D01*
X017095Y043454D01*
X017058Y043420D01*
X017018Y043389D01*
X016976Y043361D01*
X016933Y043337D01*
X016887Y043316D01*
X016840Y043298D01*
X016791Y043285D01*
X016742Y043275D01*
X016692Y043269D01*
X016642Y043267D01*
X016592Y043269D01*
X016542Y043275D01*
X016493Y043285D01*
X016444Y043298D01*
X016397Y043316D01*
X016351Y043337D01*
X016308Y043361D01*
X016266Y043389D01*
X016226Y043420D01*
X016189Y043454D01*
X016155Y043491D01*
X016124Y043531D01*
X016096Y043573D01*
X016072Y043616D01*
X016051Y043662D01*
X016033Y043709D01*
X016020Y043758D01*
X016010Y043807D01*
X016004Y043857D01*
X016002Y043907D01*
X017502Y043907D02*
X017504Y043957D01*
X017510Y044007D01*
X017520Y044056D01*
X017533Y044105D01*
X017551Y044152D01*
X017572Y044198D01*
X017596Y044241D01*
X017624Y044283D01*
X017655Y044323D01*
X017689Y044360D01*
X017726Y044394D01*
X017766Y044425D01*
X017808Y044453D01*
X017851Y044477D01*
X017897Y044498D01*
X017944Y044516D01*
X017993Y044529D01*
X018042Y044539D01*
X018092Y044545D01*
X018142Y044547D01*
X018192Y044545D01*
X018242Y044539D01*
X018291Y044529D01*
X018340Y044516D01*
X018387Y044498D01*
X018433Y044477D01*
X018476Y044453D01*
X018518Y044425D01*
X018558Y044394D01*
X018595Y044360D01*
X018629Y044323D01*
X018660Y044283D01*
X018688Y044241D01*
X018712Y044198D01*
X018733Y044152D01*
X018751Y044105D01*
X018764Y044056D01*
X018774Y044007D01*
X018780Y043957D01*
X018782Y043907D01*
X018780Y043857D01*
X018774Y043807D01*
X018764Y043758D01*
X018751Y043709D01*
X018733Y043662D01*
X018712Y043616D01*
X018688Y043573D01*
X018660Y043531D01*
X018629Y043491D01*
X018595Y043454D01*
X018558Y043420D01*
X018518Y043389D01*
X018476Y043361D01*
X018433Y043337D01*
X018387Y043316D01*
X018340Y043298D01*
X018291Y043285D01*
X018242Y043275D01*
X018192Y043269D01*
X018142Y043267D01*
X018092Y043269D01*
X018042Y043275D01*
X017993Y043285D01*
X017944Y043298D01*
X017897Y043316D01*
X017851Y043337D01*
X017808Y043361D01*
X017766Y043389D01*
X017726Y043420D01*
X017689Y043454D01*
X017655Y043491D01*
X017624Y043531D01*
X017596Y043573D01*
X017572Y043616D01*
X017551Y043662D01*
X017533Y043709D01*
X017520Y043758D01*
X017510Y043807D01*
X017504Y043857D01*
X017502Y043907D01*
X021502Y043907D02*
X021504Y043957D01*
X021510Y044007D01*
X021520Y044056D01*
X021533Y044105D01*
X021551Y044152D01*
X021572Y044198D01*
X021596Y044241D01*
X021624Y044283D01*
X021655Y044323D01*
X021689Y044360D01*
X021726Y044394D01*
X021766Y044425D01*
X021808Y044453D01*
X021851Y044477D01*
X021897Y044498D01*
X021944Y044516D01*
X021993Y044529D01*
X022042Y044539D01*
X022092Y044545D01*
X022142Y044547D01*
X022192Y044545D01*
X022242Y044539D01*
X022291Y044529D01*
X022340Y044516D01*
X022387Y044498D01*
X022433Y044477D01*
X022476Y044453D01*
X022518Y044425D01*
X022558Y044394D01*
X022595Y044360D01*
X022629Y044323D01*
X022660Y044283D01*
X022688Y044241D01*
X022712Y044198D01*
X022733Y044152D01*
X022751Y044105D01*
X022764Y044056D01*
X022774Y044007D01*
X022780Y043957D01*
X022782Y043907D01*
X022780Y043857D01*
X022774Y043807D01*
X022764Y043758D01*
X022751Y043709D01*
X022733Y043662D01*
X022712Y043616D01*
X022688Y043573D01*
X022660Y043531D01*
X022629Y043491D01*
X022595Y043454D01*
X022558Y043420D01*
X022518Y043389D01*
X022476Y043361D01*
X022433Y043337D01*
X022387Y043316D01*
X022340Y043298D01*
X022291Y043285D01*
X022242Y043275D01*
X022192Y043269D01*
X022142Y043267D01*
X022092Y043269D01*
X022042Y043275D01*
X021993Y043285D01*
X021944Y043298D01*
X021897Y043316D01*
X021851Y043337D01*
X021808Y043361D01*
X021766Y043389D01*
X021726Y043420D01*
X021689Y043454D01*
X021655Y043491D01*
X021624Y043531D01*
X021596Y043573D01*
X021572Y043616D01*
X021551Y043662D01*
X021533Y043709D01*
X021520Y043758D01*
X021510Y043807D01*
X021504Y043857D01*
X021502Y043907D01*
X023002Y043907D02*
X023004Y043957D01*
X023010Y044007D01*
X023020Y044056D01*
X023033Y044105D01*
X023051Y044152D01*
X023072Y044198D01*
X023096Y044241D01*
X023124Y044283D01*
X023155Y044323D01*
X023189Y044360D01*
X023226Y044394D01*
X023266Y044425D01*
X023308Y044453D01*
X023351Y044477D01*
X023397Y044498D01*
X023444Y044516D01*
X023493Y044529D01*
X023542Y044539D01*
X023592Y044545D01*
X023642Y044547D01*
X023692Y044545D01*
X023742Y044539D01*
X023791Y044529D01*
X023840Y044516D01*
X023887Y044498D01*
X023933Y044477D01*
X023976Y044453D01*
X024018Y044425D01*
X024058Y044394D01*
X024095Y044360D01*
X024129Y044323D01*
X024160Y044283D01*
X024188Y044241D01*
X024212Y044198D01*
X024233Y044152D01*
X024251Y044105D01*
X024264Y044056D01*
X024274Y044007D01*
X024280Y043957D01*
X024282Y043907D01*
X024280Y043857D01*
X024274Y043807D01*
X024264Y043758D01*
X024251Y043709D01*
X024233Y043662D01*
X024212Y043616D01*
X024188Y043573D01*
X024160Y043531D01*
X024129Y043491D01*
X024095Y043454D01*
X024058Y043420D01*
X024018Y043389D01*
X023976Y043361D01*
X023933Y043337D01*
X023887Y043316D01*
X023840Y043298D01*
X023791Y043285D01*
X023742Y043275D01*
X023692Y043269D01*
X023642Y043267D01*
X023592Y043269D01*
X023542Y043275D01*
X023493Y043285D01*
X023444Y043298D01*
X023397Y043316D01*
X023351Y043337D01*
X023308Y043361D01*
X023266Y043389D01*
X023226Y043420D01*
X023189Y043454D01*
X023155Y043491D01*
X023124Y043531D01*
X023096Y043573D01*
X023072Y043616D01*
X023051Y043662D01*
X023033Y043709D01*
X023020Y043758D01*
X023010Y043807D01*
X023004Y043857D01*
X023002Y043907D01*
X027002Y043907D02*
X027004Y043957D01*
X027010Y044007D01*
X027020Y044056D01*
X027033Y044105D01*
X027051Y044152D01*
X027072Y044198D01*
X027096Y044241D01*
X027124Y044283D01*
X027155Y044323D01*
X027189Y044360D01*
X027226Y044394D01*
X027266Y044425D01*
X027308Y044453D01*
X027351Y044477D01*
X027397Y044498D01*
X027444Y044516D01*
X027493Y044529D01*
X027542Y044539D01*
X027592Y044545D01*
X027642Y044547D01*
X027692Y044545D01*
X027742Y044539D01*
X027791Y044529D01*
X027840Y044516D01*
X027887Y044498D01*
X027933Y044477D01*
X027976Y044453D01*
X028018Y044425D01*
X028058Y044394D01*
X028095Y044360D01*
X028129Y044323D01*
X028160Y044283D01*
X028188Y044241D01*
X028212Y044198D01*
X028233Y044152D01*
X028251Y044105D01*
X028264Y044056D01*
X028274Y044007D01*
X028280Y043957D01*
X028282Y043907D01*
X028280Y043857D01*
X028274Y043807D01*
X028264Y043758D01*
X028251Y043709D01*
X028233Y043662D01*
X028212Y043616D01*
X028188Y043573D01*
X028160Y043531D01*
X028129Y043491D01*
X028095Y043454D01*
X028058Y043420D01*
X028018Y043389D01*
X027976Y043361D01*
X027933Y043337D01*
X027887Y043316D01*
X027840Y043298D01*
X027791Y043285D01*
X027742Y043275D01*
X027692Y043269D01*
X027642Y043267D01*
X027592Y043269D01*
X027542Y043275D01*
X027493Y043285D01*
X027444Y043298D01*
X027397Y043316D01*
X027351Y043337D01*
X027308Y043361D01*
X027266Y043389D01*
X027226Y043420D01*
X027189Y043454D01*
X027155Y043491D01*
X027124Y043531D01*
X027096Y043573D01*
X027072Y043616D01*
X027051Y043662D01*
X027033Y043709D01*
X027020Y043758D01*
X027010Y043807D01*
X027004Y043857D01*
X027002Y043907D01*
X038512Y042157D02*
X038514Y042207D01*
X038520Y042257D01*
X038530Y042306D01*
X038544Y042354D01*
X038561Y042401D01*
X038582Y042446D01*
X038607Y042490D01*
X038635Y042531D01*
X038667Y042570D01*
X038701Y042607D01*
X038738Y042641D01*
X038778Y042671D01*
X038820Y042698D01*
X038864Y042722D01*
X038910Y042743D01*
X038957Y042759D01*
X039005Y042772D01*
X039055Y042781D01*
X039104Y042786D01*
X039155Y042787D01*
X039205Y042784D01*
X039254Y042777D01*
X039303Y042766D01*
X039351Y042751D01*
X039397Y042733D01*
X039442Y042711D01*
X039485Y042685D01*
X039526Y042656D01*
X039565Y042624D01*
X039601Y042589D01*
X039633Y042551D01*
X039663Y042511D01*
X039690Y042468D01*
X039713Y042424D01*
X039732Y042378D01*
X039748Y042330D01*
X039760Y042281D01*
X039768Y042232D01*
X039772Y042182D01*
X039772Y042132D01*
X039768Y042082D01*
X039760Y042033D01*
X039748Y041984D01*
X039732Y041936D01*
X039713Y041890D01*
X039690Y041846D01*
X039663Y041803D01*
X039633Y041763D01*
X039601Y041725D01*
X039565Y041690D01*
X039526Y041658D01*
X039485Y041629D01*
X039442Y041603D01*
X039397Y041581D01*
X039351Y041563D01*
X039303Y041548D01*
X039254Y041537D01*
X039205Y041530D01*
X039155Y041527D01*
X039104Y041528D01*
X039055Y041533D01*
X039005Y041542D01*
X038957Y041555D01*
X038910Y041571D01*
X038864Y041592D01*
X038820Y041616D01*
X038778Y041643D01*
X038738Y041673D01*
X038701Y041707D01*
X038667Y041744D01*
X038635Y041783D01*
X038607Y041824D01*
X038582Y041868D01*
X038561Y041913D01*
X038544Y041960D01*
X038530Y042008D01*
X038520Y042057D01*
X038514Y042107D01*
X038512Y042157D01*
X039512Y044407D02*
X039514Y044457D01*
X039520Y044507D01*
X039530Y044556D01*
X039544Y044604D01*
X039561Y044651D01*
X039582Y044696D01*
X039607Y044740D01*
X039635Y044781D01*
X039667Y044820D01*
X039701Y044857D01*
X039738Y044891D01*
X039778Y044921D01*
X039820Y044948D01*
X039864Y044972D01*
X039910Y044993D01*
X039957Y045009D01*
X040005Y045022D01*
X040055Y045031D01*
X040104Y045036D01*
X040155Y045037D01*
X040205Y045034D01*
X040254Y045027D01*
X040303Y045016D01*
X040351Y045001D01*
X040397Y044983D01*
X040442Y044961D01*
X040485Y044935D01*
X040526Y044906D01*
X040565Y044874D01*
X040601Y044839D01*
X040633Y044801D01*
X040663Y044761D01*
X040690Y044718D01*
X040713Y044674D01*
X040732Y044628D01*
X040748Y044580D01*
X040760Y044531D01*
X040768Y044482D01*
X040772Y044432D01*
X040772Y044382D01*
X040768Y044332D01*
X040760Y044283D01*
X040748Y044234D01*
X040732Y044186D01*
X040713Y044140D01*
X040690Y044096D01*
X040663Y044053D01*
X040633Y044013D01*
X040601Y043975D01*
X040565Y043940D01*
X040526Y043908D01*
X040485Y043879D01*
X040442Y043853D01*
X040397Y043831D01*
X040351Y043813D01*
X040303Y043798D01*
X040254Y043787D01*
X040205Y043780D01*
X040155Y043777D01*
X040104Y043778D01*
X040055Y043783D01*
X040005Y043792D01*
X039957Y043805D01*
X039910Y043821D01*
X039864Y043842D01*
X039820Y043866D01*
X039778Y043893D01*
X039738Y043923D01*
X039701Y043957D01*
X039667Y043994D01*
X039635Y044033D01*
X039607Y044074D01*
X039582Y044118D01*
X039561Y044163D01*
X039544Y044210D01*
X039530Y044258D01*
X039520Y044307D01*
X039514Y044357D01*
X039512Y044407D01*
X038512Y037657D02*
X038514Y037707D01*
X038520Y037757D01*
X038530Y037806D01*
X038544Y037854D01*
X038561Y037901D01*
X038582Y037946D01*
X038607Y037990D01*
X038635Y038031D01*
X038667Y038070D01*
X038701Y038107D01*
X038738Y038141D01*
X038778Y038171D01*
X038820Y038198D01*
X038864Y038222D01*
X038910Y038243D01*
X038957Y038259D01*
X039005Y038272D01*
X039055Y038281D01*
X039104Y038286D01*
X039155Y038287D01*
X039205Y038284D01*
X039254Y038277D01*
X039303Y038266D01*
X039351Y038251D01*
X039397Y038233D01*
X039442Y038211D01*
X039485Y038185D01*
X039526Y038156D01*
X039565Y038124D01*
X039601Y038089D01*
X039633Y038051D01*
X039663Y038011D01*
X039690Y037968D01*
X039713Y037924D01*
X039732Y037878D01*
X039748Y037830D01*
X039760Y037781D01*
X039768Y037732D01*
X039772Y037682D01*
X039772Y037632D01*
X039768Y037582D01*
X039760Y037533D01*
X039748Y037484D01*
X039732Y037436D01*
X039713Y037390D01*
X039690Y037346D01*
X039663Y037303D01*
X039633Y037263D01*
X039601Y037225D01*
X039565Y037190D01*
X039526Y037158D01*
X039485Y037129D01*
X039442Y037103D01*
X039397Y037081D01*
X039351Y037063D01*
X039303Y037048D01*
X039254Y037037D01*
X039205Y037030D01*
X039155Y037027D01*
X039104Y037028D01*
X039055Y037033D01*
X039005Y037042D01*
X038957Y037055D01*
X038910Y037071D01*
X038864Y037092D01*
X038820Y037116D01*
X038778Y037143D01*
X038738Y037173D01*
X038701Y037207D01*
X038667Y037244D01*
X038635Y037283D01*
X038607Y037324D01*
X038582Y037368D01*
X038561Y037413D01*
X038544Y037460D01*
X038530Y037508D01*
X038520Y037557D01*
X038514Y037607D01*
X038512Y037657D01*
X039512Y030907D02*
X039514Y030957D01*
X039520Y031007D01*
X039530Y031056D01*
X039544Y031104D01*
X039561Y031151D01*
X039582Y031196D01*
X039607Y031240D01*
X039635Y031281D01*
X039667Y031320D01*
X039701Y031357D01*
X039738Y031391D01*
X039778Y031421D01*
X039820Y031448D01*
X039864Y031472D01*
X039910Y031493D01*
X039957Y031509D01*
X040005Y031522D01*
X040055Y031531D01*
X040104Y031536D01*
X040155Y031537D01*
X040205Y031534D01*
X040254Y031527D01*
X040303Y031516D01*
X040351Y031501D01*
X040397Y031483D01*
X040442Y031461D01*
X040485Y031435D01*
X040526Y031406D01*
X040565Y031374D01*
X040601Y031339D01*
X040633Y031301D01*
X040663Y031261D01*
X040690Y031218D01*
X040713Y031174D01*
X040732Y031128D01*
X040748Y031080D01*
X040760Y031031D01*
X040768Y030982D01*
X040772Y030932D01*
X040772Y030882D01*
X040768Y030832D01*
X040760Y030783D01*
X040748Y030734D01*
X040732Y030686D01*
X040713Y030640D01*
X040690Y030596D01*
X040663Y030553D01*
X040633Y030513D01*
X040601Y030475D01*
X040565Y030440D01*
X040526Y030408D01*
X040485Y030379D01*
X040442Y030353D01*
X040397Y030331D01*
X040351Y030313D01*
X040303Y030298D01*
X040254Y030287D01*
X040205Y030280D01*
X040155Y030277D01*
X040104Y030278D01*
X040055Y030283D01*
X040005Y030292D01*
X039957Y030305D01*
X039910Y030321D01*
X039864Y030342D01*
X039820Y030366D01*
X039778Y030393D01*
X039738Y030423D01*
X039701Y030457D01*
X039667Y030494D01*
X039635Y030533D01*
X039607Y030574D01*
X039582Y030618D01*
X039561Y030663D01*
X039544Y030710D01*
X039530Y030758D01*
X039520Y030807D01*
X039514Y030857D01*
X039512Y030907D01*
X038274Y029282D02*
X038276Y029303D01*
X038282Y029323D01*
X038291Y029343D01*
X038303Y029360D01*
X038318Y029374D01*
X038336Y029386D01*
X038356Y029394D01*
X038376Y029399D01*
X038397Y029400D01*
X038418Y029397D01*
X038438Y029391D01*
X038457Y029380D01*
X038474Y029367D01*
X038487Y029351D01*
X038498Y029333D01*
X038506Y029313D01*
X038510Y029293D01*
X038510Y029271D01*
X038506Y029251D01*
X038498Y029231D01*
X038487Y029213D01*
X038474Y029197D01*
X038457Y029184D01*
X038438Y029173D01*
X038418Y029167D01*
X038397Y029164D01*
X038376Y029165D01*
X038356Y029170D01*
X038336Y029178D01*
X038318Y029190D01*
X038303Y029204D01*
X038291Y029221D01*
X038282Y029241D01*
X038276Y029261D01*
X038274Y029282D01*
X037774Y029282D02*
X037776Y029303D01*
X037782Y029323D01*
X037791Y029343D01*
X037803Y029360D01*
X037818Y029374D01*
X037836Y029386D01*
X037856Y029394D01*
X037876Y029399D01*
X037897Y029400D01*
X037918Y029397D01*
X037938Y029391D01*
X037957Y029380D01*
X037974Y029367D01*
X037987Y029351D01*
X037998Y029333D01*
X038006Y029313D01*
X038010Y029293D01*
X038010Y029271D01*
X038006Y029251D01*
X037998Y029231D01*
X037987Y029213D01*
X037974Y029197D01*
X037957Y029184D01*
X037938Y029173D01*
X037918Y029167D01*
X037897Y029164D01*
X037876Y029165D01*
X037856Y029170D01*
X037836Y029178D01*
X037818Y029190D01*
X037803Y029204D01*
X037791Y029221D01*
X037782Y029241D01*
X037776Y029261D01*
X037774Y029282D01*
X037274Y029282D02*
X037276Y029303D01*
X037282Y029323D01*
X037291Y029343D01*
X037303Y029360D01*
X037318Y029374D01*
X037336Y029386D01*
X037356Y029394D01*
X037376Y029399D01*
X037397Y029400D01*
X037418Y029397D01*
X037438Y029391D01*
X037457Y029380D01*
X037474Y029367D01*
X037487Y029351D01*
X037498Y029333D01*
X037506Y029313D01*
X037510Y029293D01*
X037510Y029271D01*
X037506Y029251D01*
X037498Y029231D01*
X037487Y029213D01*
X037474Y029197D01*
X037457Y029184D01*
X037438Y029173D01*
X037418Y029167D01*
X037397Y029164D01*
X037376Y029165D01*
X037356Y029170D01*
X037336Y029178D01*
X037318Y029190D01*
X037303Y029204D01*
X037291Y029221D01*
X037282Y029241D01*
X037276Y029261D01*
X037274Y029282D01*
X036774Y029282D02*
X036776Y029303D01*
X036782Y029323D01*
X036791Y029343D01*
X036803Y029360D01*
X036818Y029374D01*
X036836Y029386D01*
X036856Y029394D01*
X036876Y029399D01*
X036897Y029400D01*
X036918Y029397D01*
X036938Y029391D01*
X036957Y029380D01*
X036974Y029367D01*
X036987Y029351D01*
X036998Y029333D01*
X037006Y029313D01*
X037010Y029293D01*
X037010Y029271D01*
X037006Y029251D01*
X036998Y029231D01*
X036987Y029213D01*
X036974Y029197D01*
X036957Y029184D01*
X036938Y029173D01*
X036918Y029167D01*
X036897Y029164D01*
X036876Y029165D01*
X036856Y029170D01*
X036836Y029178D01*
X036818Y029190D01*
X036803Y029204D01*
X036791Y029221D01*
X036782Y029241D01*
X036776Y029261D01*
X036774Y029282D01*
X036274Y029282D02*
X036276Y029303D01*
X036282Y029323D01*
X036291Y029343D01*
X036303Y029360D01*
X036318Y029374D01*
X036336Y029386D01*
X036356Y029394D01*
X036376Y029399D01*
X036397Y029400D01*
X036418Y029397D01*
X036438Y029391D01*
X036457Y029380D01*
X036474Y029367D01*
X036487Y029351D01*
X036498Y029333D01*
X036506Y029313D01*
X036510Y029293D01*
X036510Y029271D01*
X036506Y029251D01*
X036498Y029231D01*
X036487Y029213D01*
X036474Y029197D01*
X036457Y029184D01*
X036438Y029173D01*
X036418Y029167D01*
X036397Y029164D01*
X036376Y029165D01*
X036356Y029170D01*
X036336Y029178D01*
X036318Y029190D01*
X036303Y029204D01*
X036291Y029221D01*
X036282Y029241D01*
X036276Y029261D01*
X036274Y029282D01*
X035774Y029282D02*
X035776Y029303D01*
X035782Y029323D01*
X035791Y029343D01*
X035803Y029360D01*
X035818Y029374D01*
X035836Y029386D01*
X035856Y029394D01*
X035876Y029399D01*
X035897Y029400D01*
X035918Y029397D01*
X035938Y029391D01*
X035957Y029380D01*
X035974Y029367D01*
X035987Y029351D01*
X035998Y029333D01*
X036006Y029313D01*
X036010Y029293D01*
X036010Y029271D01*
X036006Y029251D01*
X035998Y029231D01*
X035987Y029213D01*
X035974Y029197D01*
X035957Y029184D01*
X035938Y029173D01*
X035918Y029167D01*
X035897Y029164D01*
X035876Y029165D01*
X035856Y029170D01*
X035836Y029178D01*
X035818Y029190D01*
X035803Y029204D01*
X035791Y029221D01*
X035782Y029241D01*
X035776Y029261D01*
X035774Y029282D01*
X035774Y026532D02*
X035776Y026553D01*
X035782Y026573D01*
X035791Y026593D01*
X035803Y026610D01*
X035818Y026624D01*
X035836Y026636D01*
X035856Y026644D01*
X035876Y026649D01*
X035897Y026650D01*
X035918Y026647D01*
X035938Y026641D01*
X035957Y026630D01*
X035974Y026617D01*
X035987Y026601D01*
X035998Y026583D01*
X036006Y026563D01*
X036010Y026543D01*
X036010Y026521D01*
X036006Y026501D01*
X035998Y026481D01*
X035987Y026463D01*
X035974Y026447D01*
X035957Y026434D01*
X035938Y026423D01*
X035918Y026417D01*
X035897Y026414D01*
X035876Y026415D01*
X035856Y026420D01*
X035836Y026428D01*
X035818Y026440D01*
X035803Y026454D01*
X035791Y026471D01*
X035782Y026491D01*
X035776Y026511D01*
X035774Y026532D01*
X036274Y026532D02*
X036276Y026553D01*
X036282Y026573D01*
X036291Y026593D01*
X036303Y026610D01*
X036318Y026624D01*
X036336Y026636D01*
X036356Y026644D01*
X036376Y026649D01*
X036397Y026650D01*
X036418Y026647D01*
X036438Y026641D01*
X036457Y026630D01*
X036474Y026617D01*
X036487Y026601D01*
X036498Y026583D01*
X036506Y026563D01*
X036510Y026543D01*
X036510Y026521D01*
X036506Y026501D01*
X036498Y026481D01*
X036487Y026463D01*
X036474Y026447D01*
X036457Y026434D01*
X036438Y026423D01*
X036418Y026417D01*
X036397Y026414D01*
X036376Y026415D01*
X036356Y026420D01*
X036336Y026428D01*
X036318Y026440D01*
X036303Y026454D01*
X036291Y026471D01*
X036282Y026491D01*
X036276Y026511D01*
X036274Y026532D01*
X036774Y026532D02*
X036776Y026553D01*
X036782Y026573D01*
X036791Y026593D01*
X036803Y026610D01*
X036818Y026624D01*
X036836Y026636D01*
X036856Y026644D01*
X036876Y026649D01*
X036897Y026650D01*
X036918Y026647D01*
X036938Y026641D01*
X036957Y026630D01*
X036974Y026617D01*
X036987Y026601D01*
X036998Y026583D01*
X037006Y026563D01*
X037010Y026543D01*
X037010Y026521D01*
X037006Y026501D01*
X036998Y026481D01*
X036987Y026463D01*
X036974Y026447D01*
X036957Y026434D01*
X036938Y026423D01*
X036918Y026417D01*
X036897Y026414D01*
X036876Y026415D01*
X036856Y026420D01*
X036836Y026428D01*
X036818Y026440D01*
X036803Y026454D01*
X036791Y026471D01*
X036782Y026491D01*
X036776Y026511D01*
X036774Y026532D01*
X037274Y026532D02*
X037276Y026553D01*
X037282Y026573D01*
X037291Y026593D01*
X037303Y026610D01*
X037318Y026624D01*
X037336Y026636D01*
X037356Y026644D01*
X037376Y026649D01*
X037397Y026650D01*
X037418Y026647D01*
X037438Y026641D01*
X037457Y026630D01*
X037474Y026617D01*
X037487Y026601D01*
X037498Y026583D01*
X037506Y026563D01*
X037510Y026543D01*
X037510Y026521D01*
X037506Y026501D01*
X037498Y026481D01*
X037487Y026463D01*
X037474Y026447D01*
X037457Y026434D01*
X037438Y026423D01*
X037418Y026417D01*
X037397Y026414D01*
X037376Y026415D01*
X037356Y026420D01*
X037336Y026428D01*
X037318Y026440D01*
X037303Y026454D01*
X037291Y026471D01*
X037282Y026491D01*
X037276Y026511D01*
X037274Y026532D01*
X037774Y026532D02*
X037776Y026553D01*
X037782Y026573D01*
X037791Y026593D01*
X037803Y026610D01*
X037818Y026624D01*
X037836Y026636D01*
X037856Y026644D01*
X037876Y026649D01*
X037897Y026650D01*
X037918Y026647D01*
X037938Y026641D01*
X037957Y026630D01*
X037974Y026617D01*
X037987Y026601D01*
X037998Y026583D01*
X038006Y026563D01*
X038010Y026543D01*
X038010Y026521D01*
X038006Y026501D01*
X037998Y026481D01*
X037987Y026463D01*
X037974Y026447D01*
X037957Y026434D01*
X037938Y026423D01*
X037918Y026417D01*
X037897Y026414D01*
X037876Y026415D01*
X037856Y026420D01*
X037836Y026428D01*
X037818Y026440D01*
X037803Y026454D01*
X037791Y026471D01*
X037782Y026491D01*
X037776Y026511D01*
X037774Y026532D01*
X038274Y026532D02*
X038276Y026553D01*
X038282Y026573D01*
X038291Y026593D01*
X038303Y026610D01*
X038318Y026624D01*
X038336Y026636D01*
X038356Y026644D01*
X038376Y026649D01*
X038397Y026650D01*
X038418Y026647D01*
X038438Y026641D01*
X038457Y026630D01*
X038474Y026617D01*
X038487Y026601D01*
X038498Y026583D01*
X038506Y026563D01*
X038510Y026543D01*
X038510Y026521D01*
X038506Y026501D01*
X038498Y026481D01*
X038487Y026463D01*
X038474Y026447D01*
X038457Y026434D01*
X038438Y026423D01*
X038418Y026417D01*
X038397Y026414D01*
X038376Y026415D01*
X038356Y026420D01*
X038336Y026428D01*
X038318Y026440D01*
X038303Y026454D01*
X038291Y026471D01*
X038282Y026491D01*
X038276Y026511D01*
X038274Y026532D01*
X040012Y025407D02*
X040014Y025457D01*
X040020Y025507D01*
X040030Y025556D01*
X040044Y025604D01*
X040061Y025651D01*
X040082Y025696D01*
X040107Y025740D01*
X040135Y025781D01*
X040167Y025820D01*
X040201Y025857D01*
X040238Y025891D01*
X040278Y025921D01*
X040320Y025948D01*
X040364Y025972D01*
X040410Y025993D01*
X040457Y026009D01*
X040505Y026022D01*
X040555Y026031D01*
X040604Y026036D01*
X040655Y026037D01*
X040705Y026034D01*
X040754Y026027D01*
X040803Y026016D01*
X040851Y026001D01*
X040897Y025983D01*
X040942Y025961D01*
X040985Y025935D01*
X041026Y025906D01*
X041065Y025874D01*
X041101Y025839D01*
X041133Y025801D01*
X041163Y025761D01*
X041190Y025718D01*
X041213Y025674D01*
X041232Y025628D01*
X041248Y025580D01*
X041260Y025531D01*
X041268Y025482D01*
X041272Y025432D01*
X041272Y025382D01*
X041268Y025332D01*
X041260Y025283D01*
X041248Y025234D01*
X041232Y025186D01*
X041213Y025140D01*
X041190Y025096D01*
X041163Y025053D01*
X041133Y025013D01*
X041101Y024975D01*
X041065Y024940D01*
X041026Y024908D01*
X040985Y024879D01*
X040942Y024853D01*
X040897Y024831D01*
X040851Y024813D01*
X040803Y024798D01*
X040754Y024787D01*
X040705Y024780D01*
X040655Y024777D01*
X040604Y024778D01*
X040555Y024783D01*
X040505Y024792D01*
X040457Y024805D01*
X040410Y024821D01*
X040364Y024842D01*
X040320Y024866D01*
X040278Y024893D01*
X040238Y024923D01*
X040201Y024957D01*
X040167Y024994D01*
X040135Y025033D01*
X040107Y025074D01*
X040082Y025118D01*
X040061Y025163D01*
X040044Y025210D01*
X040030Y025258D01*
X040020Y025307D01*
X040014Y025357D01*
X040012Y025407D01*
X040012Y010407D02*
X040014Y010457D01*
X040020Y010507D01*
X040030Y010556D01*
X040044Y010604D01*
X040061Y010651D01*
X040082Y010696D01*
X040107Y010740D01*
X040135Y010781D01*
X040167Y010820D01*
X040201Y010857D01*
X040238Y010891D01*
X040278Y010921D01*
X040320Y010948D01*
X040364Y010972D01*
X040410Y010993D01*
X040457Y011009D01*
X040505Y011022D01*
X040555Y011031D01*
X040604Y011036D01*
X040655Y011037D01*
X040705Y011034D01*
X040754Y011027D01*
X040803Y011016D01*
X040851Y011001D01*
X040897Y010983D01*
X040942Y010961D01*
X040985Y010935D01*
X041026Y010906D01*
X041065Y010874D01*
X041101Y010839D01*
X041133Y010801D01*
X041163Y010761D01*
X041190Y010718D01*
X041213Y010674D01*
X041232Y010628D01*
X041248Y010580D01*
X041260Y010531D01*
X041268Y010482D01*
X041272Y010432D01*
X041272Y010382D01*
X041268Y010332D01*
X041260Y010283D01*
X041248Y010234D01*
X041232Y010186D01*
X041213Y010140D01*
X041190Y010096D01*
X041163Y010053D01*
X041133Y010013D01*
X041101Y009975D01*
X041065Y009940D01*
X041026Y009908D01*
X040985Y009879D01*
X040942Y009853D01*
X040897Y009831D01*
X040851Y009813D01*
X040803Y009798D01*
X040754Y009787D01*
X040705Y009780D01*
X040655Y009777D01*
X040604Y009778D01*
X040555Y009783D01*
X040505Y009792D01*
X040457Y009805D01*
X040410Y009821D01*
X040364Y009842D01*
X040320Y009866D01*
X040278Y009893D01*
X040238Y009923D01*
X040201Y009957D01*
X040167Y009994D01*
X040135Y010033D01*
X040107Y010074D01*
X040082Y010118D01*
X040061Y010163D01*
X040044Y010210D01*
X040030Y010258D01*
X040020Y010307D01*
X040014Y010357D01*
X040012Y010407D01*
X021002Y011407D02*
X021004Y011457D01*
X021010Y011507D01*
X021020Y011556D01*
X021033Y011605D01*
X021051Y011652D01*
X021072Y011698D01*
X021096Y011741D01*
X021124Y011783D01*
X021155Y011823D01*
X021189Y011860D01*
X021226Y011894D01*
X021266Y011925D01*
X021308Y011953D01*
X021351Y011977D01*
X021397Y011998D01*
X021444Y012016D01*
X021493Y012029D01*
X021542Y012039D01*
X021592Y012045D01*
X021642Y012047D01*
X021692Y012045D01*
X021742Y012039D01*
X021791Y012029D01*
X021840Y012016D01*
X021887Y011998D01*
X021933Y011977D01*
X021976Y011953D01*
X022018Y011925D01*
X022058Y011894D01*
X022095Y011860D01*
X022129Y011823D01*
X022160Y011783D01*
X022188Y011741D01*
X022212Y011698D01*
X022233Y011652D01*
X022251Y011605D01*
X022264Y011556D01*
X022274Y011507D01*
X022280Y011457D01*
X022282Y011407D01*
X022280Y011357D01*
X022274Y011307D01*
X022264Y011258D01*
X022251Y011209D01*
X022233Y011162D01*
X022212Y011116D01*
X022188Y011073D01*
X022160Y011031D01*
X022129Y010991D01*
X022095Y010954D01*
X022058Y010920D01*
X022018Y010889D01*
X021976Y010861D01*
X021933Y010837D01*
X021887Y010816D01*
X021840Y010798D01*
X021791Y010785D01*
X021742Y010775D01*
X021692Y010769D01*
X021642Y010767D01*
X021592Y010769D01*
X021542Y010775D01*
X021493Y010785D01*
X021444Y010798D01*
X021397Y010816D01*
X021351Y010837D01*
X021308Y010861D01*
X021266Y010889D01*
X021226Y010920D01*
X021189Y010954D01*
X021155Y010991D01*
X021124Y011031D01*
X021096Y011073D01*
X021072Y011116D01*
X021051Y011162D01*
X021033Y011209D01*
X021020Y011258D01*
X021010Y011307D01*
X021004Y011357D01*
X021002Y011407D01*
X017002Y011407D02*
X017004Y011457D01*
X017010Y011507D01*
X017020Y011556D01*
X017033Y011605D01*
X017051Y011652D01*
X017072Y011698D01*
X017096Y011741D01*
X017124Y011783D01*
X017155Y011823D01*
X017189Y011860D01*
X017226Y011894D01*
X017266Y011925D01*
X017308Y011953D01*
X017351Y011977D01*
X017397Y011998D01*
X017444Y012016D01*
X017493Y012029D01*
X017542Y012039D01*
X017592Y012045D01*
X017642Y012047D01*
X017692Y012045D01*
X017742Y012039D01*
X017791Y012029D01*
X017840Y012016D01*
X017887Y011998D01*
X017933Y011977D01*
X017976Y011953D01*
X018018Y011925D01*
X018058Y011894D01*
X018095Y011860D01*
X018129Y011823D01*
X018160Y011783D01*
X018188Y011741D01*
X018212Y011698D01*
X018233Y011652D01*
X018251Y011605D01*
X018264Y011556D01*
X018274Y011507D01*
X018280Y011457D01*
X018282Y011407D01*
X018280Y011357D01*
X018274Y011307D01*
X018264Y011258D01*
X018251Y011209D01*
X018233Y011162D01*
X018212Y011116D01*
X018188Y011073D01*
X018160Y011031D01*
X018129Y010991D01*
X018095Y010954D01*
X018058Y010920D01*
X018018Y010889D01*
X017976Y010861D01*
X017933Y010837D01*
X017887Y010816D01*
X017840Y010798D01*
X017791Y010785D01*
X017742Y010775D01*
X017692Y010769D01*
X017642Y010767D01*
X017592Y010769D01*
X017542Y010775D01*
X017493Y010785D01*
X017444Y010798D01*
X017397Y010816D01*
X017351Y010837D01*
X017308Y010861D01*
X017266Y010889D01*
X017226Y010920D01*
X017189Y010954D01*
X017155Y010991D01*
X017124Y011031D01*
X017096Y011073D01*
X017072Y011116D01*
X017051Y011162D01*
X017033Y011209D01*
X017020Y011258D01*
X017010Y011307D01*
X017004Y011357D01*
X017002Y011407D01*
X015502Y011407D02*
X015504Y011457D01*
X015510Y011507D01*
X015520Y011556D01*
X015533Y011605D01*
X015551Y011652D01*
X015572Y011698D01*
X015596Y011741D01*
X015624Y011783D01*
X015655Y011823D01*
X015689Y011860D01*
X015726Y011894D01*
X015766Y011925D01*
X015808Y011953D01*
X015851Y011977D01*
X015897Y011998D01*
X015944Y012016D01*
X015993Y012029D01*
X016042Y012039D01*
X016092Y012045D01*
X016142Y012047D01*
X016192Y012045D01*
X016242Y012039D01*
X016291Y012029D01*
X016340Y012016D01*
X016387Y011998D01*
X016433Y011977D01*
X016476Y011953D01*
X016518Y011925D01*
X016558Y011894D01*
X016595Y011860D01*
X016629Y011823D01*
X016660Y011783D01*
X016688Y011741D01*
X016712Y011698D01*
X016733Y011652D01*
X016751Y011605D01*
X016764Y011556D01*
X016774Y011507D01*
X016780Y011457D01*
X016782Y011407D01*
X016780Y011357D01*
X016774Y011307D01*
X016764Y011258D01*
X016751Y011209D01*
X016733Y011162D01*
X016712Y011116D01*
X016688Y011073D01*
X016660Y011031D01*
X016629Y010991D01*
X016595Y010954D01*
X016558Y010920D01*
X016518Y010889D01*
X016476Y010861D01*
X016433Y010837D01*
X016387Y010816D01*
X016340Y010798D01*
X016291Y010785D01*
X016242Y010775D01*
X016192Y010769D01*
X016142Y010767D01*
X016092Y010769D01*
X016042Y010775D01*
X015993Y010785D01*
X015944Y010798D01*
X015897Y010816D01*
X015851Y010837D01*
X015808Y010861D01*
X015766Y010889D01*
X015726Y010920D01*
X015689Y010954D01*
X015655Y010991D01*
X015624Y011031D01*
X015596Y011073D01*
X015572Y011116D01*
X015551Y011162D01*
X015533Y011209D01*
X015520Y011258D01*
X015510Y011307D01*
X015504Y011357D01*
X015502Y011407D01*
X011502Y011407D02*
X011504Y011457D01*
X011510Y011507D01*
X011520Y011556D01*
X011533Y011605D01*
X011551Y011652D01*
X011572Y011698D01*
X011596Y011741D01*
X011624Y011783D01*
X011655Y011823D01*
X011689Y011860D01*
X011726Y011894D01*
X011766Y011925D01*
X011808Y011953D01*
X011851Y011977D01*
X011897Y011998D01*
X011944Y012016D01*
X011993Y012029D01*
X012042Y012039D01*
X012092Y012045D01*
X012142Y012047D01*
X012192Y012045D01*
X012242Y012039D01*
X012291Y012029D01*
X012340Y012016D01*
X012387Y011998D01*
X012433Y011977D01*
X012476Y011953D01*
X012518Y011925D01*
X012558Y011894D01*
X012595Y011860D01*
X012629Y011823D01*
X012660Y011783D01*
X012688Y011741D01*
X012712Y011698D01*
X012733Y011652D01*
X012751Y011605D01*
X012764Y011556D01*
X012774Y011507D01*
X012780Y011457D01*
X012782Y011407D01*
X012780Y011357D01*
X012774Y011307D01*
X012764Y011258D01*
X012751Y011209D01*
X012733Y011162D01*
X012712Y011116D01*
X012688Y011073D01*
X012660Y011031D01*
X012629Y010991D01*
X012595Y010954D01*
X012558Y010920D01*
X012518Y010889D01*
X012476Y010861D01*
X012433Y010837D01*
X012387Y010816D01*
X012340Y010798D01*
X012291Y010785D01*
X012242Y010775D01*
X012192Y010769D01*
X012142Y010767D01*
X012092Y010769D01*
X012042Y010775D01*
X011993Y010785D01*
X011944Y010798D01*
X011897Y010816D01*
X011851Y010837D01*
X011808Y010861D01*
X011766Y010889D01*
X011726Y010920D01*
X011689Y010954D01*
X011655Y010991D01*
X011624Y011031D01*
X011596Y011073D01*
X011572Y011116D01*
X011551Y011162D01*
X011533Y011209D01*
X011520Y011258D01*
X011510Y011307D01*
X011504Y011357D01*
X011502Y011407D01*
D11*
X004392Y015032D03*
X003142Y010407D03*
X004392Y019532D03*
X003142Y025407D03*
X003642Y030907D03*
X003642Y044407D03*
X039142Y042157D03*
X040142Y044407D03*
X039142Y037657D03*
X040142Y030907D03*
X040642Y025407D03*
X040642Y010407D03*
D12*
X038392Y026532D03*
X037892Y026532D03*
X037392Y026532D03*
X036892Y026532D03*
X036392Y026532D03*
X035892Y026532D03*
X035892Y029282D03*
X036392Y029282D03*
X036892Y029282D03*
X037392Y029282D03*
X037892Y029282D03*
X038392Y029282D03*
X007892Y029282D03*
X007392Y029282D03*
X006892Y029282D03*
X006392Y029282D03*
X005892Y029282D03*
X005392Y029282D03*
X005392Y026532D03*
X005892Y026532D03*
X006392Y026532D03*
X006892Y026532D03*
X007392Y026532D03*
X007892Y026532D03*
D13*
X014990Y021300D02*
X015256Y021300D01*
X014990Y021300D02*
X014990Y021764D01*
X015256Y021764D01*
X015256Y021300D01*
X015256Y021388D02*
X014990Y021388D01*
X014990Y021476D02*
X015256Y021476D01*
X015256Y021564D02*
X014990Y021564D01*
X014990Y021652D02*
X015256Y021652D01*
X015256Y021740D02*
X014990Y021740D01*
X015778Y021300D02*
X016044Y021300D01*
X015778Y021300D02*
X015778Y021764D01*
X016044Y021764D01*
X016044Y021300D01*
X016044Y021388D02*
X015778Y021388D01*
X015778Y021476D02*
X016044Y021476D01*
X016044Y021564D02*
X015778Y021564D01*
X015778Y021652D02*
X016044Y021652D01*
X016044Y021740D02*
X015778Y021740D01*
X015840Y020550D02*
X016106Y020550D01*
X015840Y020550D02*
X015840Y021014D01*
X016106Y021014D01*
X016106Y020550D01*
X016106Y020638D02*
X015840Y020638D01*
X015840Y020726D02*
X016106Y020726D01*
X016106Y020814D02*
X015840Y020814D01*
X015840Y020902D02*
X016106Y020902D01*
X016106Y020990D02*
X015840Y020990D01*
X015319Y020550D02*
X015053Y020550D01*
X015053Y021014D01*
X015319Y021014D01*
X015319Y020550D01*
X015319Y020638D02*
X015053Y020638D01*
X015053Y020726D02*
X015319Y020726D01*
X015319Y020814D02*
X015053Y020814D01*
X015053Y020902D02*
X015319Y020902D01*
X015319Y020990D02*
X015053Y020990D01*
X017615Y020237D02*
X017881Y020237D01*
X017615Y020237D02*
X017615Y020701D01*
X017881Y020701D01*
X017881Y020237D01*
X017881Y020325D02*
X017615Y020325D01*
X017615Y020413D02*
X017881Y020413D01*
X017881Y020501D02*
X017615Y020501D01*
X017615Y020589D02*
X017881Y020589D01*
X017881Y020677D02*
X017615Y020677D01*
X018403Y020237D02*
X018669Y020237D01*
X018403Y020237D02*
X018403Y020701D01*
X018669Y020701D01*
X018669Y020237D01*
X018669Y020325D02*
X018403Y020325D01*
X018403Y020413D02*
X018669Y020413D01*
X018669Y020501D02*
X018403Y020501D01*
X018403Y020589D02*
X018669Y020589D01*
X018669Y020677D02*
X018403Y020677D01*
X020365Y022826D02*
X020631Y022826D01*
X020631Y022362D01*
X020365Y022362D01*
X020365Y022826D01*
X020365Y022450D02*
X020631Y022450D01*
X020631Y022538D02*
X020365Y022538D01*
X020365Y022626D02*
X020631Y022626D01*
X020631Y022714D02*
X020365Y022714D01*
X020365Y022802D02*
X020631Y022802D01*
X020631Y023175D02*
X020365Y023175D01*
X020365Y023639D01*
X020631Y023639D01*
X020631Y023175D01*
X020631Y023263D02*
X020365Y023263D01*
X020365Y023351D02*
X020631Y023351D01*
X020631Y023439D02*
X020365Y023439D01*
X020365Y023527D02*
X020631Y023527D01*
X020631Y023615D02*
X020365Y023615D01*
X021153Y023175D02*
X021419Y023175D01*
X021153Y023175D02*
X021153Y023639D01*
X021419Y023639D01*
X021419Y023175D01*
X021419Y023263D02*
X021153Y023263D01*
X021153Y023351D02*
X021419Y023351D01*
X021419Y023439D02*
X021153Y023439D01*
X021153Y023527D02*
X021419Y023527D01*
X021419Y023615D02*
X021153Y023615D01*
X021153Y022826D02*
X021419Y022826D01*
X021419Y022362D01*
X021153Y022362D01*
X021153Y022826D01*
X021153Y022450D02*
X021419Y022450D01*
X021419Y022538D02*
X021153Y022538D01*
X021153Y022626D02*
X021419Y022626D01*
X021419Y022714D02*
X021153Y022714D01*
X021153Y022802D02*
X021419Y022802D01*
X017374Y024380D02*
X017374Y024646D01*
X017374Y024380D02*
X016910Y024380D01*
X016910Y024646D01*
X017374Y024646D01*
X017374Y024468D02*
X016910Y024468D01*
X016910Y024556D02*
X017374Y024556D01*
X017374Y024644D02*
X016910Y024644D01*
X017374Y025167D02*
X017374Y025433D01*
X017374Y025167D02*
X016910Y025167D01*
X016910Y025433D01*
X017374Y025433D01*
X017374Y025255D02*
X016910Y025255D01*
X016910Y025343D02*
X017374Y025343D01*
X017374Y025431D02*
X016910Y025431D01*
X016374Y025433D02*
X016374Y025167D01*
X015910Y025167D01*
X015910Y025433D01*
X016374Y025433D01*
X016374Y025255D02*
X015910Y025255D01*
X015910Y025343D02*
X016374Y025343D01*
X016374Y025431D02*
X015910Y025431D01*
X016374Y024646D02*
X016374Y024380D01*
X015910Y024380D01*
X015910Y024646D01*
X016374Y024646D01*
X016374Y024468D02*
X015910Y024468D01*
X015910Y024556D02*
X016374Y024556D01*
X016374Y024644D02*
X015910Y024644D01*
X010669Y015862D02*
X010403Y015862D01*
X010403Y016326D01*
X010669Y016326D01*
X010669Y015862D01*
X010669Y015950D02*
X010403Y015950D01*
X010403Y016038D02*
X010669Y016038D01*
X010669Y016126D02*
X010403Y016126D01*
X010403Y016214D02*
X010669Y016214D01*
X010669Y016302D02*
X010403Y016302D01*
X009881Y015862D02*
X009615Y015862D01*
X009615Y016326D01*
X009881Y016326D01*
X009881Y015862D01*
X009881Y015950D02*
X009615Y015950D01*
X009615Y016038D02*
X009881Y016038D01*
X009881Y016126D02*
X009615Y016126D01*
X009615Y016214D02*
X009881Y016214D01*
X009881Y016302D02*
X009615Y016302D01*
X032374Y030380D02*
X032374Y030646D01*
X032374Y030380D02*
X031910Y030380D01*
X031910Y030646D01*
X032374Y030646D01*
X032374Y030468D02*
X031910Y030468D01*
X031910Y030556D02*
X032374Y030556D01*
X032374Y030644D02*
X031910Y030644D01*
X032374Y031167D02*
X032374Y031433D01*
X032374Y031167D02*
X031910Y031167D01*
X031910Y031433D01*
X032374Y031433D01*
X032374Y031255D02*
X031910Y031255D01*
X031910Y031343D02*
X032374Y031343D01*
X032374Y031431D02*
X031910Y031431D01*
X033374Y031433D02*
X033374Y031167D01*
X032910Y031167D01*
X032910Y031433D01*
X033374Y031433D01*
X033374Y031255D02*
X032910Y031255D01*
X032910Y031343D02*
X033374Y031343D01*
X033374Y031431D02*
X032910Y031431D01*
X033374Y030646D02*
X033374Y030380D01*
X032910Y030380D01*
X032910Y030646D01*
X033374Y030646D01*
X033374Y030468D02*
X032910Y030468D01*
X032910Y030556D02*
X033374Y030556D01*
X033374Y030644D02*
X032910Y030644D01*
X035865Y032237D02*
X036131Y032237D01*
X035865Y032237D02*
X035865Y032701D01*
X036131Y032701D01*
X036131Y032237D01*
X036131Y032325D02*
X035865Y032325D01*
X035865Y032413D02*
X036131Y032413D01*
X036131Y032501D02*
X035865Y032501D01*
X035865Y032589D02*
X036131Y032589D01*
X036131Y032677D02*
X035865Y032677D01*
X036653Y032237D02*
X036919Y032237D01*
X036653Y032237D02*
X036653Y032701D01*
X036919Y032701D01*
X036919Y032237D01*
X036919Y032325D02*
X036653Y032325D01*
X036653Y032413D02*
X036919Y032413D01*
X036919Y032501D02*
X036653Y032501D01*
X036653Y032589D02*
X036919Y032589D01*
X036919Y032677D02*
X036653Y032677D01*
X035410Y033880D02*
X035410Y034146D01*
X035874Y034146D01*
X035874Y033880D01*
X035410Y033880D01*
X035410Y033968D02*
X035874Y033968D01*
X035874Y034056D02*
X035410Y034056D01*
X035410Y034144D02*
X035874Y034144D01*
X035410Y034667D02*
X035410Y034933D01*
X035874Y034933D01*
X035874Y034667D01*
X035410Y034667D01*
X035410Y034755D02*
X035874Y034755D01*
X035874Y034843D02*
X035410Y034843D01*
X035410Y034931D02*
X035874Y034931D01*
X033106Y035139D02*
X032840Y035139D01*
X033106Y035139D02*
X033106Y034675D01*
X032840Y034675D01*
X032840Y035139D01*
X032840Y034763D02*
X033106Y034763D01*
X033106Y034851D02*
X032840Y034851D01*
X032840Y034939D02*
X033106Y034939D01*
X033106Y035027D02*
X032840Y035027D01*
X032840Y035115D02*
X033106Y035115D01*
X032319Y035139D02*
X032053Y035139D01*
X032319Y035139D02*
X032319Y034675D01*
X032053Y034675D01*
X032053Y035139D01*
X032053Y034763D02*
X032319Y034763D01*
X032319Y034851D02*
X032053Y034851D01*
X032053Y034939D02*
X032319Y034939D01*
X032319Y035027D02*
X032053Y035027D01*
X032053Y035115D02*
X032319Y035115D01*
X038374Y031433D02*
X038374Y031167D01*
X037910Y031167D01*
X037910Y031433D01*
X038374Y031433D01*
X038374Y031255D02*
X037910Y031255D01*
X037910Y031343D02*
X038374Y031343D01*
X038374Y031431D02*
X037910Y031431D01*
X038374Y030646D02*
X038374Y030380D01*
X037910Y030380D01*
X037910Y030646D01*
X038374Y030646D01*
X038374Y030468D02*
X037910Y030468D01*
X037910Y030556D02*
X038374Y030556D01*
X038374Y030644D02*
X037910Y030644D01*
X038847Y016996D02*
X038847Y016730D01*
X038847Y016996D02*
X039311Y016996D01*
X039311Y016730D01*
X038847Y016730D01*
X038847Y016818D02*
X039311Y016818D01*
X039311Y016906D02*
X038847Y016906D01*
X038847Y016994D02*
X039311Y016994D01*
X038847Y016208D02*
X038847Y015942D01*
X038847Y016208D02*
X039311Y016208D01*
X039311Y015942D01*
X038847Y015942D01*
X038847Y016030D02*
X039311Y016030D01*
X039311Y016118D02*
X038847Y016118D01*
X038847Y016206D02*
X039311Y016206D01*
X038544Y015925D02*
X038278Y015925D01*
X038278Y016389D01*
X038544Y016389D01*
X038544Y015925D01*
X038544Y016013D02*
X038278Y016013D01*
X038278Y016101D02*
X038544Y016101D01*
X038544Y016189D02*
X038278Y016189D01*
X038278Y016277D02*
X038544Y016277D01*
X038544Y016365D02*
X038278Y016365D01*
X037756Y015925D02*
X037490Y015925D01*
X037490Y016389D01*
X037756Y016389D01*
X037756Y015925D01*
X037756Y016013D02*
X037490Y016013D01*
X037490Y016101D02*
X037756Y016101D01*
X037756Y016189D02*
X037490Y016189D01*
X037490Y016277D02*
X037756Y016277D01*
X037756Y016365D02*
X037490Y016365D01*
D14*
X034142Y031052D03*
X034142Y031761D03*
X038642Y033052D03*
X038642Y033761D03*
X022017Y020886D03*
X022017Y020177D03*
X015642Y019261D03*
X015642Y018552D03*
X014454Y018740D03*
X014454Y019448D03*
D15*
X017115Y021319D03*
X017115Y022619D03*
X019044Y022619D03*
X019044Y021319D03*
X030865Y032694D03*
X030865Y033994D03*
X032794Y033994D03*
X032794Y032694D03*
D16*
X031246Y034844D03*
X030538Y034844D03*
X028492Y024905D03*
X027783Y024905D03*
X027963Y021412D03*
X027255Y021412D03*
X026494Y021408D03*
X025785Y021408D03*
X024996Y021402D03*
X024287Y021402D03*
X023750Y019904D03*
X023042Y019904D03*
X020496Y015907D03*
X019788Y015907D03*
X016371Y022657D03*
X015663Y022657D03*
X010559Y018907D03*
X009850Y018907D03*
X010350Y014032D03*
X011059Y014032D03*
X029288Y021407D03*
X029996Y021407D03*
X031047Y019905D03*
X031756Y019905D03*
X032290Y021405D03*
X032999Y021405D03*
X033790Y021409D03*
X034499Y021409D03*
X035256Y021409D03*
X035964Y021409D03*
X035782Y024907D03*
X036490Y024907D03*
D17*
X027642Y030407D03*
X026642Y030407D03*
X025642Y030407D03*
X024642Y030407D03*
X021642Y030407D03*
X020642Y030407D03*
X019642Y030407D03*
X018642Y030407D03*
X015642Y030407D03*
X014642Y030407D03*
X013642Y030407D03*
X012642Y030407D03*
X009642Y030407D03*
X008642Y030407D03*
X007642Y030407D03*
X006642Y030407D03*
X006392Y023907D03*
X006392Y021907D03*
X012092Y021907D03*
X012092Y022907D03*
X012092Y023907D03*
D18*
X011642Y031907D03*
X011642Y032907D03*
X011642Y033907D03*
X011642Y034907D03*
X011642Y035907D03*
X010642Y035907D03*
X010642Y034907D03*
X010642Y033907D03*
X010642Y032907D03*
X010642Y031907D03*
X010642Y036907D03*
X010642Y037907D03*
X010642Y038907D03*
X011642Y038907D03*
X011642Y037907D03*
X011642Y036907D03*
X016642Y036907D03*
X016642Y037907D03*
X016642Y038907D03*
X017642Y038907D03*
X017642Y037907D03*
X017642Y036907D03*
X017642Y035907D03*
X016642Y035907D03*
X016642Y034907D03*
X017642Y034907D03*
X017642Y033907D03*
X016642Y033907D03*
X016642Y032907D03*
X017642Y032907D03*
X017642Y031907D03*
X016642Y031907D03*
X022642Y031907D03*
X022642Y032907D03*
X022642Y033907D03*
X022642Y034907D03*
X022642Y035907D03*
X023642Y035907D03*
X023642Y034907D03*
X023642Y033907D03*
X023642Y032907D03*
X023642Y031907D03*
X023642Y036907D03*
X023642Y037907D03*
X023642Y038907D03*
X022642Y038907D03*
X022642Y037907D03*
X022642Y036907D03*
X028642Y036907D03*
X028642Y037907D03*
X028642Y038907D03*
X028642Y035907D03*
X028642Y034907D03*
X028642Y033907D03*
X028642Y032907D03*
X028642Y031907D03*
X005642Y031907D03*
X005642Y032907D03*
X005642Y033907D03*
X005642Y034907D03*
X005642Y035907D03*
X005642Y036907D03*
X005642Y037907D03*
X005642Y038907D03*
D19*
X008142Y035470D03*
X008142Y033344D03*
X014142Y033344D03*
X014142Y035470D03*
X020142Y035470D03*
X020142Y033344D03*
X026142Y033344D03*
X026142Y035470D03*
D20*
X025892Y040407D03*
X026892Y040407D03*
X026392Y041407D03*
X025392Y041407D03*
X024392Y041407D03*
X024892Y040407D03*
X021392Y040407D03*
X020892Y041407D03*
X019892Y041407D03*
X018892Y041407D03*
X019392Y040407D03*
X020392Y040407D03*
X015892Y040407D03*
X014892Y040407D03*
X015392Y041407D03*
X014392Y041407D03*
X013892Y040407D03*
X013392Y041407D03*
X010392Y040407D03*
X009392Y040407D03*
X008392Y040407D03*
X008892Y041407D03*
X009892Y041407D03*
X007892Y041407D03*
X007892Y018532D03*
X007892Y017532D03*
X007892Y016532D03*
X007892Y015532D03*
X006892Y016032D03*
X006892Y017032D03*
X006892Y018032D03*
X012892Y014907D03*
X013892Y014907D03*
X014392Y013907D03*
X015392Y013907D03*
X014892Y014907D03*
X013392Y013907D03*
X015142Y017407D03*
X016142Y017407D03*
X017142Y017407D03*
X018142Y017407D03*
X018392Y014907D03*
X019392Y014907D03*
X020392Y014907D03*
X020892Y013907D03*
X019892Y013907D03*
X018892Y013907D03*
X038142Y013407D03*
X039142Y013407D03*
X035642Y038657D03*
X035642Y039657D03*
X035642Y040657D03*
X035642Y041657D03*
X036642Y041157D03*
X036642Y040157D03*
X036642Y039157D03*
D21*
X027642Y043907D03*
X023642Y043907D03*
X022142Y043907D03*
X018142Y043907D03*
X016642Y043907D03*
X012642Y043907D03*
X011142Y043907D03*
X007142Y043907D03*
X012142Y011407D03*
X016142Y011407D03*
X017642Y011407D03*
X021642Y011407D03*
D22*
X035307Y035594D03*
X035977Y035594D03*
D23*
X039842Y035407D02*
X040442Y035407D01*
X040442Y034407D02*
X039842Y034407D01*
X039842Y033407D02*
X040442Y033407D01*
D24*
X038642Y034855D03*
X038642Y035958D03*
D25*
X036642Y038157D03*
X006892Y019032D03*
D26*
X008142Y022157D03*
X008142Y023657D03*
X010142Y023657D03*
X010142Y022157D03*
X035142Y030157D03*
X035142Y031657D03*
X037142Y031657D03*
X037142Y030157D03*
D27*
X033634Y041533D02*
X032650Y041533D01*
X031173Y042222D02*
X031173Y043206D01*
X032650Y043954D02*
X033634Y043954D01*
X007259Y013468D02*
X006275Y013468D01*
X006275Y011047D02*
X007259Y011047D01*
X008735Y011795D02*
X008735Y012779D01*
D28*
X009189Y014907D03*
X010095Y014907D03*
X035189Y036407D03*
X036095Y036407D03*
D29*
X033642Y038040D03*
X033642Y039773D03*
X031642Y039773D03*
X031642Y038040D03*
X038338Y014844D03*
X040071Y014844D03*
D30*
X036146Y013662D02*
X036146Y013148D01*
X035146Y013148D02*
X035146Y013662D01*
X028138Y013670D02*
X028138Y013155D01*
X027138Y013155D02*
X027138Y013670D01*
D31*
X029138Y011412D03*
X025138Y011412D03*
X033146Y011405D03*
X037146Y011405D03*
D32*
X034136Y015412D03*
X033136Y015412D03*
X032136Y015412D03*
X026144Y015402D03*
X025144Y015402D03*
X024144Y015402D03*
X024144Y022402D03*
X025144Y022402D03*
X026144Y022402D03*
X032136Y022412D03*
X033136Y022412D03*
X034136Y022412D03*
D33*
X035615Y022648D03*
X035615Y023148D03*
X035615Y023648D03*
X035615Y024148D03*
X037675Y024148D03*
X037675Y023648D03*
X037675Y023148D03*
X037675Y022648D03*
X029671Y022656D03*
X029671Y023156D03*
X029671Y023656D03*
X029671Y024156D03*
X027611Y024156D03*
X027611Y023656D03*
X027611Y023156D03*
X027611Y022656D03*
D34*
X010453Y018106D03*
X009705Y018106D03*
X009705Y017082D03*
X010079Y017082D03*
X010453Y017082D03*
D35*
X039955Y016800D03*
X040703Y016800D03*
X040329Y015974D03*
D36*
X009142Y020307D03*
X009142Y025507D03*
D37*
X039371Y018094D03*
X040788Y018094D03*
D38*
X036642Y017907D03*
X036642Y016907D03*
X036642Y019907D03*
X032892Y019907D03*
X032892Y016907D03*
X028642Y016907D03*
X028642Y017907D03*
X028642Y019907D03*
X024892Y019907D03*
X024892Y016907D03*
M02*
